<svg id="Layer_1" data-name="Layer 1" xmlns="http://www.w3.org/2000/svg" viewBox="0 0 1200 1200"><defs><style>.cls-1{fill:#ff8548;}.cls-2{fill:#66192d;}.cls-3{fill:#553e93;}.cls-4{fill:#ffba41;}.cls-5{fill:#f18c7e;}.cls-6{fill:#ff443c;}.cls-7{fill:#fdad9b;}.cls-8{fill:#786ab5;}.cls-9{fill:#f22525;}</style></defs><path class="cls-1" d="M343.06,376s-11.24-31.08,1.87-52.43,60.27-51.66,47-77.86-47.63-25.23-59.48-10.16S330,264,321,266.94s-61.89,12.29-61.87-18.78,28.66-78,73.93-85.24,105.8-14.34,126.49,43.19,1.24,83.65-29,103-10.81,52.19-21.87,58.44S345.77,386.13,343.06,376Z"/><path class="cls-1" d="M339.18,437c.36-24.94,12.73-42.05,34.7-44.85s41.71,6.16,50.84,33.72c7,21-18.72,43-40.69,45.84S338.85,459.15,339.18,437Z"/><path class="cls-2" d="M449.83,209.85c-9.25-25.75-27-40.82-54.25-46.07-23.28-4.5-49.67-1-72.56,2.68a78.82,78.82,0,0,0-8.14,1.76c-41.12,11.25-66,54.87-66,83.79,0,7,2.67,12.48,7.95,16.29,8.14,5.88,21,6.7,30.33,6.35,10.24-.38,20.19-2.32,24-3.59a5.79,5.79,0,0,0,3.33-2.52c1.19-2,1.3-4.74,1.44-7.92.24-5.86.54-13.16,6.77-21.07,3.57-4.56,9.25-7.83,15.82-9.42a40.17,40.17,0,0,1,13.12-.87,37.17,37.17,0,0,1,30,20.4c9.09,17.91-10.5,37.9-27.78,55.53-7.77,7.92-15.1,15.41-19.17,22-12.94,21.06-2.17,51.9-1.9,52.68a4.55,4.55,0,0,0,2.91,2.84,24.31,24.31,0,0,0,8.88,1.26c16.92,0,46.7-8,54.31-12.32a3.36,3.36,0,0,0,.51-.32c3.8-2.62,3.65-8.65,3.46-16.18-.32-12.64-.76-30,17.92-41.95,17.92-11.5,28.31-23,33.68-37.36C461,258.34,459.5,236.74,449.83,209.85Zm4,65.82c-5.33,14.21-15.64,25.63-33.45,37.06-19,12.18-18.52,29.69-18.19,42.47.19,7.66.35,13.7-3.66,16-.72.4-1.57.83-2.56,1.26-10.75,4.75-36.48,11-51.46,11a23.85,23.85,0,0,1-8.65-1.21,4,4,0,0,1-2.56-2.45v0c-.11-.31-11-31.19,1.84-52.17,4-6.57,11.35-14,19.09-21.93,17.42-17.78,37.17-37.93,27.88-56.22a37.7,37.7,0,0,0-30.5-20.72c-1.36-.13-2.71-.2-4.05-.2a40,40,0,0,0-7.48.7c-7.46,1.42-14,4.94-17.95,10-6.35,8.07-6.67,15.79-6.9,21.43-.14,3.46-.25,6.27-1.66,8.09a5.4,5.4,0,0,1-2.69,1.81c-3.76,1.24-13.64,3.17-23.83,3.55-9.24.34-21.95-.46-29.94-6.23-5.12-3.7-7.71-9-7.71-15.81,0-27.75,23.13-69.14,61.53-82a75.4,75.4,0,0,1,12.15-3c50.65-8.09,106.35-12.1,126.15,43C458.88,236.81,460.39,258.27,453.87,275.67Z"/><path class="cls-2" d="M415,429.62c-8.29-25-26.47-37.08-51.16-33.93-1.23.16-2.43.36-3.6.61a36.49,36.49,0,0,0-22.06,13.63c-5.91,7.78-9.13,18.47-9.32,30.91-.13,9.24,3.87,18,11.28,24.59a43.37,43.37,0,0,0,33.92,10.42,51.65,51.65,0,0,0,17.45-5.79c8.12-4.34,15.33-10.65,19.83-17.79C416.12,444.66,417.39,436.83,415,429.62ZM410.83,452c-4.94,7.83-13.18,14.66-22.28,18.93A49.56,49.56,0,0,1,374,475.25,42.65,42.65,0,0,1,340.53,465c-7.27-6.5-11.21-15.07-11.07-24.13.18-12.31,3.36-22.88,9.19-30.56a35.64,35.64,0,0,1,19.69-12.93,42.71,42.71,0,0,1,5.56-1.07,57.63,57.63,0,0,1,7.42-.49c20.6,0,35.76,11.86,43.1,34C416.76,436.85,415.51,444.5,410.83,452Z"/><path class="cls-3" d="M705.35,270.93s-3.08-26.41,11.12-40.71,56.71-29.35,51.12-52.31S734.94,149.37,722.88,159s-7.16,21.83-14.7,22.5-50.73-1.77-45-26.1,36.82-55.81,73.6-53.13,85.49,8.27,91.09,57.13-14.44,65.73-41.66,75.34-18.09,38.88-27.9,41.74S705.59,279.39,705.35,270.93Z"/><path class="cls-3" d="M691.06,318c4.88-19.46,17.72-30.59,35.44-28.73s31.52,12.5,33.6,35.77c1.58,17.75-22.59,30.25-40.31,28.4S686.72,335.29,691.06,318Z"/><path class="cls-2" d="M819.56,160.52c-2.51-21.86-13.62-36.94-34-46.07-17.4-7.8-38.71-9.91-57.31-11.26a60.68,60.68,0,0,0-6.73-.12c-34.26,1.24-61.8,30.79-67.12,53.43-1.3,5.48-.21,10.27,3.23,14.23,9.74,11.24,35.57,12.75,42,12.17a4.66,4.66,0,0,0,3.07-1.37c1.3-1.32,1.89-3.46,2.58-5.93,1.27-4.55,2.85-10.21,9.18-15.26,3.65-2.91,8.7-4.43,14.14-4.45a31.66,31.66,0,0,1,10.43,1.74,29.83,29.83,0,0,1,19.75,21.49c3.82,15.7-15.2,27.75-32,38.37-7.54,4.77-14.67,9.28-19.08,13.72-7.38,7.44-10,18.17-11,25.87a72.24,72.24,0,0,0-.24,15,3.63,3.63,0,0,0,1.76,2.76c4.75,3.46,18.26,4.73,30.49,4.73,9.12,0,17.51-.71,21-1.74a3.66,3.66,0,0,0,.43-.15c3.49-1.35,4.48-6.09,5.72-12,2.07-10,4.92-23.6,21.76-29.55,16.15-5.7,26.41-12.81,33.26-23C819.37,200.55,822.18,183.36,819.56,160.52Zm-9,52.28c-6.8,10.15-17,17.2-33,22.87-17.09,6-20,19.82-22.07,29.9-1.26,6-2.25,10.79-5.81,11.83a22.23,22.23,0,0,1-2.24.52c-11.56,2.15-41.62,1.83-48.86-3.43a3.19,3.19,0,0,1-1.55-2.4v0a70.93,70.93,0,0,1,.23-14.94c.91-7.62,3.53-18.23,10.82-25.57,4.37-4.41,11.47-8.9,19-13.66C744,207.19,763.17,195,759.27,179a30.35,30.35,0,0,0-20.07-21.85,32.64,32.64,0,0,0-9.11-1.73l-1.32,0c-5.61,0-10.83,1.56-14.58,4.56-6.46,5.15-8.14,11.14-9.36,15.5-.75,2.7-1.36,4.88-2.8,6a4.39,4.39,0,0,1-2.43.91c-6.39.58-32-.9-41.61-12-3.33-3.83-4.37-8.48-3.12-13.8,5.11-21.71,30.8-49.84,63.21-52.84h0a60.94,60.94,0,0,1,10.12-.1c41.16,3,85.51,10.12,90.87,56.91C821.68,183.3,818.91,200.38,810.6,212.8Z"/><path class="cls-2" d="M751.79,326.2c-1.89-21.14-13.9-33.92-33.82-36-1-.11-2-.17-3-.18h0c-15.9-.36-28,10.32-32.73,29.09a25.86,25.86,0,0,0,4.3,21.33,34.86,34.86,0,0,0,24.64,14.41,34,34,0,0,0,3.67.19,45.13,45.13,0,0,0,29.87-11.79C749.9,338.18,752.33,332.28,751.79,326.2Zm-7.38,16.71c-5.3,5.22-13,9-20.93,10.71a39.71,39.71,0,0,1-12.22.75A34.34,34.34,0,0,1,687,340.17a25.39,25.39,0,0,1-4.23-20.94c2.41-9.61,6.84-17.29,12.83-22.23a28.5,28.5,0,0,1,17.75-6.49l.92,0a35.31,35.31,0,0,1,3.68.19c19.67,2.05,31.53,14.69,33.39,35.55C751.83,332.18,749.45,337.94,744.41,342.91Z"/><path class="cls-4" d="M887.25,492.56s-1.14-26.56,14.08-39.78,58.71-25.1,54.82-48.42S925.69,373.5,913,382.21s-8.75,21.25-16.32,21.36-50.46-5.5-42.95-29.33,40.82-53,77.3-47.58,84.66,14.52,86.65,63.66-19.24,64.5-47.09,72.08-20.9,37.45-30.89,39.58S886.87,501,887.25,492.56Z"/><path class="cls-4" d="M869.53,538.46c6.3-19.05,19.92-29.2,37.46-26.05s30.52,14.79,30.88,38.15c.27,17.81-24.75,28.5-42.29,25.35S863.94,555.37,869.53,538.46Z"/><path class="cls-2" d="M1009.26,390.84c-.89-22-10.87-37.83-30.51-48.44C962,333.34,940.87,329.67,922.41,327a64.69,64.69,0,0,0-6.61-.61c-34.29-1.32-64,26.15-70.95,48.35-1.7,5.37-1,10.23,2.17,14.43,8.89,11.93,34.55,15.34,41,15.22a4.69,4.69,0,0,0,3.17-1.13c1.38-1.22,2.13-3.31,3-5.73,1.61-4.44,3.6-10,10.28-14.54a23,23,0,0,1,14.44-3.41,32.16,32.16,0,0,1,10.26,2.5,29.86,29.86,0,0,1,18.12,22.9c2.66,15.94-17.19,26.55-34.71,35.91-7.87,4.21-15.31,8.18-20,12.29-7.91,6.87-11.33,17.38-12.82,25a71.67,71.67,0,0,0-1.34,15,3.63,3.63,0,0,0,1.55,2.89c6,5.07,27.94,7.4,41.64,7.4a53,53,0,0,0,9.51-.63c.16,0,.31-.08.45-.12,3.57-1.09,4.9-5.76,6.58-11.59,2.81-9.78,6.65-23.18,23.88-27.88,16.53-4.5,27.28-10.83,34.86-20.53C1006.14,430.75,1010.19,413.81,1009.26,390.84Zm-12.78,51.49c-7.52,9.62-18.19,15.9-34.61,20.37-17.49,4.76-21.38,18.31-24.21,28.2-1.7,5.93-3,10.6-6.66,11.37-.66.14-1.44.26-2.32.36-11.71,1.29-41.61-1.24-48.43-7a3.2,3.2,0,0,1-1.38-2.5v0a71.86,71.86,0,0,1,1.33-14.88c1.48-7.53,4.87-17.92,12.67-24.71,4.69-4.07,12.1-8,20-12.22,17.66-9.44,37.68-20.14,35-36.42a30.35,30.35,0,0,0-18.41-23.26,32.45,32.45,0,0,0-9-2.4h0a29.06,29.06,0,0,0-3.46-.21,22.54,22.54,0,0,0-12.71,3.56c-6.81,4.66-8.92,10.51-10.46,14.78-.94,2.63-1.71,4.75-3.24,5.8a4.27,4.27,0,0,1-2.49.74c-6.43.11-31.84-3.25-40.62-15-3-4.07-3.74-8.78-2.09-14,6.7-21.29,34.43-47.48,67-48a60.73,60.73,0,0,1,10,.64c40.82,6,84.54,16.38,86.44,63.43C1009.7,413.72,1005.68,430.55,996.48,442.33Z"/><path class="cls-2" d="M898.41,512.7c-1-.17-1.94-.3-2.9-.4-15.86-1.53-28.73,8.23-34.82,26.62a25.88,25.88,0,0,0,2.72,21.59,34.88,34.88,0,0,0,23.51,16.18,38,38,0,0,0,6.54.55,44.45,44.45,0,0,0,8.24-.78,43,43,0,0,0,19.52-8.87c5.51-4.68,8.37-10.39,8.28-16.5C929.17,529.88,918.14,516.24,898.41,512.7Zm22.5,54.52c-5.68,4.82-13.67,8.07-21.7,9.15a39.8,39.8,0,0,1-12.2-.16,34.36,34.36,0,0,1-23.19-16,26.55,26.55,0,0,1-3.89-13.61,23.94,23.94,0,0,1,1.22-7.57c3.11-9.41,8.1-16.75,14.43-21.23a28.41,28.41,0,0,1,16.68-5.21c.52,0,1,0,1.55,0a37.49,37.49,0,0,1,4.52.52c19.46,3.49,30.36,17,30.68,37.91C929.11,557.06,926.3,562.63,920.91,567.22Z"/><path class="cls-1" d="M992.82,239.18s-.69-16.06,8.51-24.05,35.51-15.18,33.16-29.28-18.42-18.66-26.12-13.4-5.29,12.85-9.87,12.92-30.52-3.33-26-17.74,24.69-32,46.75-28.77,51.19,8.78,52.4,38.5-11.64,39-28.48,43.59-12.63,22.64-18.68,23.93S992.59,244.29,992.82,239.18Z"/><path class="cls-1" d="M982.11,266.94c3.81-11.52,12-17.66,22.65-15.75s18.45,8.94,18.67,23.07c.17,10.77-15,17.23-25.57,15.33S978.72,277.17,982.11,266.94Z"/><path class="cls-2" d="M1066.61,177.67c-.55-13.3-6.58-22.88-18.46-29.29-10.15-5.48-22.91-7.7-34.06-9.34a38,38,0,0,0-4.08-.38h0c-20.7-.74-38.6,15.84-42.83,29.25a9.22,9.22,0,0,0,1.32,8.72c5.38,7.21,20.9,9.27,24.8,9.2a2.71,2.71,0,0,0,1.91-.69,8.23,8.23,0,0,0,1.83-3.46c1-2.68,2.17-6,6.21-8.79a13.86,13.86,0,0,1,8.72-2,19.25,19.25,0,0,1,6.22,1.51,18,18,0,0,1,11,13.84c1.61,9.64-10.4,16.06-21,21.72-4.76,2.54-9.25,4.94-12.11,7.43-4.78,4.15-6.86,10.51-7.76,15.11a43.47,43.47,0,0,0-.81,9.06,2.21,2.21,0,0,0,.94,1.74c3.62,3.07,16.9,4.48,25.18,4.48a31.94,31.94,0,0,0,5.76-.39l.26-.07c2.15-.65,3-3.48,4-7,1.7-5.92,4-14,14.44-16.85,10-2.72,16.5-6.56,21.08-12.42C1064.72,201.81,1067.16,191.56,1066.61,177.67Zm-7.74,31.14c-4.54,5.81-11,9.61-20.93,12.32-10.58,2.87-12.93,11.07-14.64,17.05-1,3.58-1.84,6.41-4,6.88-.39.08-.86.15-1.38.21-7.06.78-25.17-.75-29.31-4.24a2,2,0,0,1-.83-1.52h0a43.13,43.13,0,0,1,.81-9c.89-4.54,2.94-10.83,7.66-14.94,2.83-2.45,7.32-4.85,12.06-7.38,10.68-5.72,22.78-12.18,21.14-22a18.32,18.32,0,0,0-11.13-14.06,19.63,19.63,0,0,0-5.43-1.45,18.78,18.78,0,0,0-2.1-.13,13.59,13.59,0,0,0-7.68,2.15c-4.13,2.82-5.4,6.36-6.33,8.94-.57,1.58-1,2.86-2,3.51a2.62,2.62,0,0,1-1.51.44h-.18c-4.14,0-19.15-2.06-24.39-9.09a8.93,8.93,0,0,1-1.26-8.45c4-12.87,20.78-28.68,40.45-29.05a34.4,34.4,0,0,1,6.13.38c24.68,3.63,51.12,9.9,52.27,38.35C1066.87,191.5,1064.44,201.68,1058.87,208.81Z"/><path class="cls-2" d="M999.57,251.37c-.59-.11-1.17-.19-1.75-.25-9.59-.93-17.39,5-21.06,16.09a15.66,15.66,0,0,0,1.64,13.06,21.09,21.09,0,0,0,14.22,9.78,22.4,22.4,0,0,0,4,.34,26.92,26.92,0,0,0,4.95-.47,26,26,0,0,0,11.84-5.37c3.34-2.83,5.06-6.28,5-10C1018.17,261.75,1011.5,253.5,999.57,251.37Zm13.61,33a26.14,26.14,0,0,1-13.11,5.53,24.34,24.34,0,0,1-7.39-.09,20.81,20.81,0,0,1-14-9.65A15.35,15.35,0,0,1,977,267.31c1.87-5.69,4.89-10.13,8.72-12.84a17.17,17.17,0,0,1,10.09-3.16l.95,0a19.71,19.71,0,0,1,2.72.31c11.77,2.11,18.36,10.26,18.55,22.93C1018.13,278.18,1016.44,281.55,1013.18,284.33Z"/><path class="cls-4" d="M325.34,712.49s-12.87-18.5-8-34.87S348,633,334.66,618.08s-35.8-8.27-41,3.73,3.37,19.19-2,22.71-38.62,19-44.06-1.53,5.21-56.43,33.77-69.13,67.2-28,90.91,6.28,15.49,54.9-1,73,2,36.29-4.17,42.35S328.9,718.71,325.34,712.49Z"/><path class="cls-4" d="M333.47,753.39c-4.13-16.5,1-29.94,15-35.64s28.57-3.26,39.42,13.3c8.28,12.63-4.79,31.64-18.78,37.34S337.14,768,333.47,753.39Z"/><path class="cls-2" d="M366.56,584.31c-10.62-15.34-24.95-22.15-43.83-20.84-16.13,1.12-32.89,8.07-47.34,14.49a50.8,50.8,0,0,0-5.09,2.62c-25.1,14.63-33.85,47.71-28.8,66.75a13,13,0,0,0,8.11,9.35c6.39,2.45,15,.73,21.09-1.13A71.31,71.31,0,0,0,285.88,649a4,4,0,0,0,1.75-2.25c.44-1.5,0-3.34-.44-5.46-.87-3.91-1.95-8.77.76-15.08a19.38,19.38,0,0,1,8.78-9,27.47,27.47,0,0,1,8.49-2.88,25.29,25.29,0,0,1,23.36,8.18c9.13,10.2-.27,26.8-8.56,41.46-3.73,6.58-7.25,12.79-8.77,17.88-4.83,16.14,7.67,34.58,8,35a3.06,3.06,0,0,0,2.41,1.36,7.4,7.4,0,0,0,1.07.07c5.55,0,15.6-4.68,19.87-6.79,8.08-4,16-8.91,18.76-11.64a3.85,3.85,0,0,0,.27-.3c2.05-2.4.9-6.34-.55-11.27-2.43-8.28-5.75-19.61,4.45-30.79,9.79-10.72,14.62-20.13,15.65-30.52C382.42,614.3,377.64,600.33,366.56,584.31ZM380.76,627c-1,10.3-5.81,19.64-15.54,30.29-10.37,11.34-7,22.81-4.55,31.18,1.47,5,2.64,9,.4,11.15a19.49,19.49,0,0,1-1.54,1.34,111.45,111.45,0,0,1-17.11,10.22c-9.58,4.76-17.13,7.2-20.71,6.69a2.67,2.67,0,0,1-2.12-1.16v0c-.13-.18-12.75-18.61-7.94-34.7,1.51-5,5-11.23,8.73-17.79,8.37-14.78,17.84-31.51,8.51-41.94a25.53,25.53,0,0,0-19.26-8.67,28.47,28.47,0,0,0-4.47.37,27.66,27.66,0,0,0-7.51,2.35c-4.66,2.24-8.33,5.71-10.06,9.74-2.77,6.43-1.63,11.57-.79,15.33.51,2.31.93,4.17.32,5.62a3.77,3.77,0,0,1-1.45,1.66,70.46,70.46,0,0,1-15.08,6.52c-6,1.85-14.55,3.55-20.83,1.15a12.57,12.57,0,0,1-7.84-9.07c-4.87-18.29,3.11-49.64,26.2-64.82a51.25,51.25,0,0,1,7.44-4.07c32-14.21,68-26.62,90.67,6.21C377.25,600.49,382,614.36,380.76,627Z"/><path class="cls-2" d="M382.13,735.23c-9.85-15-23.94-19.79-39.66-13.39-.78.32-1.53.67-2.26,1C331,727.55,326,736.22,326,747.2a43.57,43.57,0,0,0,1.37,10.52A22,22,0,0,0,339.08,772,29,29,0,0,0,352.16,775a29.53,29.53,0,0,0,11.11-2.16A34.85,34.85,0,0,0,373.71,766h0a36.53,36.53,0,0,0,10-15.23C385.52,744.94,385,739.56,382.13,735.23Zm1.17,15.44a36.44,36.44,0,0,1-11.37,16.39,33.44,33.44,0,0,1-8.82,5.42,29.1,29.1,0,0,1-23.84-.9,21.52,21.52,0,0,1-11.52-14c-2-8.15-1.8-15.67.7-21.75a24.26,24.26,0,0,1,10.69-12,31.14,31.14,0,0,1,3.48-1.69c15.52-6.32,29.43-1.63,39.17,13.23C384.57,739.68,385.09,744.94,383.3,750.67Z"/><path class="cls-1" d="M1050.91,745.52s6.47-14.72,18.25-17.84,38.56,2,42.66-11.67-8.31-24.87-17.54-23.54-10.41,9.2-14.55,7.25-25.93-16.43-15.5-27.37,36.27-17.87,54.64-5.23,42.08,30.45,30.07,57.65-27.63,29.89-44.77,26.58-21.32,14.76-27.32,13.25S1048.46,750,1050.91,745.52Z"/><path class="cls-1" d="M1029.07,765.72c8.49-8.67,18.59-10.55,27.27-4.16s12.63,16.16,6.6,28.94c-4.6,9.74-21,8.87-29.72,2.49S1021.52,773.41,1029.07,765.72Z"/><path class="cls-2" d="M1140.6,688.4c-6.69-9.4-17.17-17-26.47-23.4a37.75,37.75,0,0,0-3.46-2.12c-18.26-9.82-41.67-2.82-51.36,7.36a9.21,9.21,0,0,0-2.66,8.41c1.64,8.84,14.66,17.52,18.2,19.2a2.84,2.84,0,0,0,2,.22,8.4,8.4,0,0,0,3.15-2.3c2.06-2,4.61-4.46,9.45-5.16a13.85,13.85,0,0,1,8.74,2,19.11,19.11,0,0,1,4.91,4.09,18,18,0,0,1,3.73,17.26c-2.8,9.35-16.41,9.82-28.41,10.24-5.39.18-10.49.36-14.14,1.33-6.14,1.62-10.79,6.41-13.63,10.14a44.16,44.16,0,0,0-4.72,7.78,2.2,2.2,0,0,0,.07,2c2.48,5.67,20.94,16.05,26,17.31l.3,0,.17,0c2.15.2,4.07-1.93,6.47-4.57,4.13-4.56,9.78-10.81,20.38-8.77,10.17,2,17.7,1.39,24.4-1.85,8.2-4,14.92-12.09,20.53-24.81C1149.63,710.65,1148.44,699.39,1140.6,688.4Zm3.39,34.31c-5.59,12.64-12.26,20.71-20.39,24.65-6.65,3.22-14.12,3.79-24.22,1.84-10.76-2.07-16.48,4.25-20.66,8.86-2.5,2.76-4.47,4.93-6.65,4.39-.39-.1-.84-.24-1.33-.42-6.69-2.4-22.27-11.76-24.44-16.72a2,2,0,0,1-.08-1.73h0a42.36,42.36,0,0,1,4.69-7.73c2.8-3.69,7.41-8.43,13.46-10,3.63-1,8.7-1.13,14.08-1.32,12.11-.42,25.82-.89,28.69-10.45a18.37,18.37,0,0,0-3.79-17.53,20,20,0,0,0-4.26-3.7,15.7,15.7,0,0,0-7-2.54,11,11,0,0,0-2.69.05c-4.93.71-7.64,3.33-9.61,5.23-1.22,1.18-2.2,2.13-3.31,2.29a2.61,2.61,0,0,1-1.55-.26c-3.5-1.65-16.41-10.25-18-19a9,9,0,0,1,2.59-8.16c9.31-9.77,31.32-16.59,49.14-8.24a35.75,35.75,0,0,1,5.31,3C1134.53,679.38,1155.49,696.66,1144,722.71Z"/><path class="cls-2" d="M1051.61,759.43c-.49-.36-1-.69-1.49-1a18.16,18.16,0,0,0-7.88-2.71c-6.09-.57-12.42,2.1-18.09,7.89a15.66,15.66,0,0,0-4.29,12.44,21.08,21.08,0,0,0,8.46,15.05,24.94,24.94,0,0,0,8.07,3.81,28.88,28.88,0,0,0,5,.92,23.93,23.93,0,0,0,8-.53c4.23-1.07,7.31-3.41,8.88-6.75C1063.73,777,1061.37,766.61,1051.61,759.43Zm6.38,29c-1.54,3.27-4.55,5.54-8.7,6.59a26,26,0,0,1-14.19-.8,23.91,23.91,0,0,1-6.61-3.35,20.73,20.73,0,0,1-8.33-14.84,15.35,15.35,0,0,1,4.19-12.21c4.19-4.28,8.86-6.93,13.49-7.68a17.4,17.4,0,0,1,11.26,2,20.91,20.91,0,0,1,2.33,1.5C1061.07,766.75,1063.4,777,1058,788.42Z"/><path class="cls-3" d="M1082,507s8.73-13.5,20.86-14.7,37.75,8.14,44-4.72-4.24-25.87-13.56-26-11.75,7.42-15.52,4.83-23-20.35-10.94-29.49,38.66-11.85,54.78,3.56,36.69,36.76,20.49,61.7-32,25.1-48.44,19.1-23.4,11.17-29.08,8.73S1078.88,511,1082,507Z"/><path class="cls-3" d="M1057.23,523.41c9.77-7.19,20-7.44,27.59.25s9.88,18,1.89,29.62c-6.09,8.88-22.18,5.41-29.73-2.28S1048.55,529.8,1057.23,523.41Z"/><path class="cls-2" d="M1179.66,464.87c-5.11-10.34-14.23-19.53-22.39-27.32a36.41,36.41,0,0,0-3.08-2.64c-16.45-12.61-40.67-9.43-51.88-.92a9.24,9.24,0,0,0-4,7.87c.23,9,11.69,19.64,14.92,21.85a2.77,2.77,0,0,0,2,.55,8.24,8.24,0,0,0,3.48-1.78c2.35-1.62,5.26-3.65,10.16-3.57a13.75,13.75,0,0,1,8.31,3.37,19,19,0,0,1,4.19,4.82,18,18,0,0,1,.93,17.63c-4.25,8.79-17.76,7.08-29.68,5.58-5.36-.68-10.41-1.32-14.18-.95-12,1.19-20.74,14.43-21,14.77a2.2,2.2,0,0,0-.25,2c1.55,6,18.11,19.18,22.88,21.23l.28.11a3.09,3.09,0,0,0,1,.15c1.86,0,3.89-1.63,6.33-3.58,4.8-3.85,11.39-9.11,21.52-5.4,9.74,3.55,17.26,4.19,24.39,2,8.73-2.61,16.65-9.55,24.22-21.21C1185,488.28,1185.65,477,1179.66,464.87Zm-2.12,34.42c-7.54,11.59-15.41,18.49-24.07,21.09-7.07,2.11-14.53,1.48-24.2-2.06-10.29-3.76-16.94,1.56-21.8,5.45-2.91,2.33-5.21,4.16-7.26,3.28a13.46,13.46,0,0,1-1.27-.63c-6.22-3.46-20.1-15.17-21.44-20.4a1.89,1.89,0,0,1,.2-1.71v0c.09-.13,8.83-13.46,20.75-14.64.76-.07,1.58-.1,2.43-.1a99.42,99.42,0,0,1,11.68,1.05c12,1.51,25.64,3.23,30-5.75a18.34,18.34,0,0,0-1-17.91,19.19,19.19,0,0,0-3.6-4.31,14.36,14.36,0,0,0-9.15-4h-.28c-4.82,0-7.83,2.1-10,3.64-1.38,1-2.51,1.74-3.63,1.73a2.7,2.7,0,0,1-1.49-.51c-3.2-2.19-14.56-12.73-14.78-21.61a9,9,0,0,1,3.85-7.64c10.75-8.16,33.57-11.39,49.85-.29h0a37.84,37.84,0,0,1,4.74,3.83C1175.1,455,1193.05,475.4,1177.54,499.29Z"/><path class="cls-2" d="M1080.49,520.81c-.42-.43-.84-.83-1.28-1.21a17.79,17.79,0,0,0-11.81-4.51c-4.72,0-9.75,1.82-14.69,5.46a15.61,15.61,0,0,0-6.21,11.6,21.06,21.06,0,0,0,5.94,16.2,24.94,24.94,0,0,0,7.39,5.07,26.85,26.85,0,0,0,11,2.51c.59,0,1.18,0,1.76-.07,4.35-.39,7.76-2.2,9.85-5.24C1089.65,540,1089,529.45,1080.49,520.81Zm1.67,29.63c-2.05,3-5.37,4.75-9.64,5.13a26.06,26.06,0,0,1-13.89-3.07,24.32,24.32,0,0,1-6-4.35,20.79,20.79,0,0,1-5.86-16,15.38,15.38,0,0,1,6.09-11.39c4.82-3.55,9.85-5.43,14.54-5.43a17.24,17.24,0,0,1,10.8,3.83,20.73,20.73,0,0,1,2.06,1.84C1088.65,529.54,1089.32,540,1082.16,550.44Z"/><path class="cls-3" d="M150.36,489.36s-9.18-13.2-5.69-24.88S166.54,432.66,157,422s-25.55-5.9-29.23,2.67,2.4,13.68-1.42,16.19-27.56,13.52-31.44-1.08,3.71-40.26,24.09-49.32,47.94-20,64.86,4.48,11,39.17-.72,52.06,1.44,25.88-3,30.21S152.9,493.8,150.36,489.36Z"/><path class="cls-3" d="M156.16,518.54c-2.94-11.77.73-21.36,10.71-25.43s20.37-2.32,28.12,9.49c5.9,9-3.42,22.57-13.4,26.64S158.78,529,156.16,518.54Z"/><path class="cls-2" d="M179.77,397.91C172.19,387,162,382.1,148.5,383c-11.51.8-23.47,5.76-33.78,10.34a36.48,36.48,0,0,0-3.58,1.83c-17.94,10.43-24.2,34.07-20.59,47.66a9.21,9.21,0,0,0,5.78,6.67c4.55,1.74,10.7.52,15-.81a50.78,50.78,0,0,0,10.83-4.68,2.75,2.75,0,0,0,1.25-1.62,8.19,8.19,0,0,0-.31-3.89c-.62-2.79-1.39-6.26.54-10.76a13.9,13.9,0,0,1,6.25-6.39,19.36,19.36,0,0,1,6.07-2.06,18,18,0,0,1,16.67,5.83c6.52,7.28-.19,19.13-6.11,29.58-2.66,4.7-5.17,9.13-6.26,12.76-3.44,11.52,5.48,24.67,5.7,25a2.22,2.22,0,0,0,1.73,1,6.26,6.26,0,0,0,.78,0c6.78,0,24-9.66,27.55-13.15a1.81,1.81,0,0,0,.18-.21c1.47-1.71.64-4.53-.39-8.05-1.73-5.9-4.1-14,3.18-22,7-7.64,10.42-14.36,11.16-21.77C191.08,419.31,187.68,409.34,179.77,397.91Zm10.13,30.44c-.73,7.34-4.15,14-11.08,21.6-7.4,8.1-5,16.28-3.25,22.25,1.05,3.57,1.88,6.39.28,8a13.21,13.21,0,0,1-1,.91l0,0a79.49,79.49,0,0,1-12.24,7.32c-6.82,3.39-12.21,5.12-14.78,4.77a2,2,0,0,1-1.51-.83h0c-.09-.13-9.09-13.29-5.66-24.76,1.07-3.59,3.57-8,6.23-12.7,6-10.54,12.73-22.48,6.07-29.92a18.24,18.24,0,0,0-13.75-6.18A19.12,19.12,0,0,0,136,419a19.7,19.7,0,0,0-5.37,1.69,14.36,14.36,0,0,0-7.17,6.94c-2,4.59-1.16,8.25-.57,10.93.37,1.65.66,3,.22,4a2.62,2.62,0,0,1-1,1.18,50.3,50.3,0,0,1-10.76,4.65c-4.31,1.32-10.38,2.53-14.86.82a9,9,0,0,1-5.6-6.47c-3.46-13.05,2.23-35.41,18.69-46.25a38.3,38.3,0,0,1,5.32-2.9c22.8-10.14,48.48-19,64.68,4.43C187.39,409.45,190.79,419.36,189.9,428.35Z"/><path class="cls-2" d="M190.88,505.58c-7-10.72-17.08-14.12-28.3-9.55a16.67,16.67,0,0,0-1.6.74c-6.62,3.34-10.17,9.52-10.17,17.36a30.94,30.94,0,0,0,1,7.51,15.62,15.62,0,0,0,8.38,10.14A20.74,20.74,0,0,0,169.5,534a21.18,21.18,0,0,0,7.92-1.53,25.28,25.28,0,0,0,7.48-4.91A25.82,25.82,0,0,0,192,516.69C193.29,512.52,192.91,508.68,190.88,505.58Zm.83,11a26,26,0,0,1-8.1,11.69,24.34,24.34,0,0,1-6.3,3.87,20.76,20.76,0,0,1-17-.64,16.48,16.48,0,0,1-5.3-4.18,14.58,14.58,0,0,1-2.92-5.78c-1.46-5.81-1.29-11.17.5-15.51a17.23,17.23,0,0,1,7.62-8.52,18.1,18.1,0,0,1,2.5-1.22,24.63,24.63,0,0,1,9.3-2c7.28,0,13.7,3.87,18.64,11.4C192.62,508.76,193,512.52,191.71,516.6Z"/><path class="cls-2" d="M511.43,323.7c-2.37-.13-4.8-.2-7.23-.2h-.12a.74.74,0,0,0,0,1.47h.12c2.4,0,4.81.06,7.14.18h.05a.73.73,0,0,0,0-1.45Zm-14.7,0c-2.41.12-4.88.31-7.33.55a.76.76,0,0,0-.66.81.74.74,0,0,0,.73.65h.08c2.42-.24,4.87-.43,7.26-.55a.73.73,0,0,0,.69-.76A.74.74,0,0,0,496.73,323.7ZM526,325.36c-2.38-.43-4.83-.78-7.29-1.06a.73.73,0,0,0-.81.65.74.74,0,0,0,.65.81c2.42.26,4.84.61,7.19,1l.12,0a.74.74,0,0,0,.72-.61A.71.71,0,0,0,526,325.36Zm-43.93-.21c-2.4.35-4.84.75-7.25,1.21a.73.73,0,0,0-.59.85.75.75,0,0,0,.73.6h.13c2.4-.46,4.81-.86,7.19-1.2a.73.73,0,0,0-.21-1.45Zm58.2,3.75c-2.3-.76-4.69-1.43-7.08-2a.73.73,0,1,0-.35,1.42c2.36.58,4.71,1.25,7,2a.85.85,0,0,0,.23,0,.74.74,0,0,0,.69-.51A.71.71,0,0,0,540.31,328.9Zm-71.76-.48a.74.74,0,0,0-.88-.55c-2.38.56-4.78,1.17-7.12,1.81a.73.73,0,0,0,.19,1.44.64.64,0,0,0,.2,0c2.32-.64,4.7-1.24,7.06-1.79A.74.74,0,0,0,468.55,328.42Zm-14.12,3.85a.73.73,0,0,0-.93-.47c-4.36,1.42-6.84,2.44-6.94,2.48a.74.74,0,0,0,.28,1.42.88.88,0,0,0,.27-.06s2.54-1.05,6.85-2.45A.74.74,0,0,0,454.43,332.27Zm99.5,2.22-.37-.19c-2-1-4.19-2-6.34-2.87a.74.74,0,0,0-1,.4.72.72,0,0,0,.4.95c2.11.87,4.21,1.82,6.24,2.83l.35.18a.73.73,0,0,0,1-.31A.73.73,0,0,0,553.93,334.49Zm10.85,10.12a23.33,23.33,0,0,0-4.68-5.89.73.73,0,1,0-1,1.08,21.54,21.54,0,0,1,4.38,5.51.73.73,0,1,0,1.28-.7Zm2.52,7.07a.72.72,0,0,0-.86-.58.75.75,0,0,0-.58.86,28.11,28.11,0,0,1,.49,5.29c0,.59,0,1.2-.05,1.8a.73.73,0,0,0,.69.78h0a.74.74,0,0,0,.73-.69c0-.64,0-1.27,0-1.89A30.28,30.28,0,0,0,567.3,351.68Zm-1.17,13.93a.73.73,0,0,0-.88.54,56,56,0,0,1-2.09,6.9.74.74,0,0,0,.43.95.77.77,0,0,0,.25,0,.74.74,0,0,0,.69-.47,58.8,58.8,0,0,0,2.15-7.08A.73.73,0,0,0,566.13,365.61Zm-2,10.31h0c-2.41,0-4.89.11-7.35.28a.73.73,0,0,0-.69.78.74.74,0,0,0,.73.68h0c2.44-.16,4.88-.26,7.27-.28a.73.73,0,0,0,.72-.74A.72.72,0,0,0,564.15,375.92Zm14.69.83c-2.4-.3-4.87-.52-7.34-.66a.73.73,0,1,0-.08,1.46c2.44.14,4.87.36,7.23.65h.1a.72.72,0,0,0,.72-.64A.73.73,0,0,0,578.84,376.75Zm-29.37.15c-2.4.3-4.84.66-7.28,1.09a.73.73,0,0,0,.13,1.45h.13c2.41-.42,4.83-.78,7.2-1.08a.73.73,0,0,0,.64-.81A.75.75,0,0,0,549.47,376.9Zm43.79,2.79c-2.32-.67-4.73-1.26-7.15-1.75a.73.73,0,1,0-.29,1.44c2.38.48,4.75,1.05,7,1.72l.2,0a.75.75,0,0,0,.71-.53A.73.73,0,0,0,593.26,379.69Zm-57.39.31a.74.74,0,0,0-.88-.56c-2.36.53-4.75,1.14-7.12,1.79a.73.73,0,0,0-.51.9.74.74,0,0,0,.71.54l.19,0c2.34-.64,4.72-1.24,7-1.77A.73.73,0,0,0,535.87,380ZM607,384.94c-2.19-1.06-4.47-2-6.76-2.92a.74.74,0,0,0-1,.42.75.75,0,0,0,.42.95c2.27.85,4.5,1.82,6.65,2.87a.71.71,0,0,0,.32.07.74.74,0,0,0,.66-.41A.75.75,0,0,0,607,384.94Zm-85.27-1.14a.73.73,0,0,0-.92-.46c-2.32.74-4.65,1.55-6.94,2.41a.73.73,0,0,0,.25,1.41.74.74,0,0,0,.25-.05c2.28-.84,4.59-1.65,6.88-2.38A.75.75,0,0,0,521.75,383.8Zm39.53-4.42a.73.73,0,0,0-1,.33c-1,2.1-2.17,4.26-3.43,6.4a.73.73,0,0,0,.27,1,.68.68,0,0,0,.36.1.74.74,0,0,0,.64-.36c1.27-2.18,2.44-4.36,3.48-6.5A.71.71,0,0,0,561.28,379.38ZM508,388.83a.73.73,0,0,0-1-.38c-2.25.94-4.51,1.95-6.72,3a.74.74,0,0,0-.35,1,.75.75,0,0,0,.67.42.73.73,0,0,0,.31-.07c2.19-1,4.42-2,6.66-3A.73.73,0,0,0,508,388.83Zm111.62,3.74c-2-1.45-4-2.84-6.13-4.1a.73.73,0,1,0-.76,1.25c2.06,1.25,4.08,2.6,6,4a.72.72,0,0,0,.44.14.7.7,0,0,0,.58-.3A.73.73,0,0,0,619.63,392.57ZM554,392.06a.75.75,0,0,0-1,.2c-1.33,2-2.76,3.95-4.26,5.9a.74.74,0,0,0,.14,1,.73.73,0,0,0,.44.15.71.71,0,0,0,.58-.29c1.51-2,3-4,4.31-6A.74.74,0,0,0,554,392.06ZM494.74,395a.73.73,0,0,0-1-.31c-2.19,1.14-4.35,2.34-6.43,3.55a.73.73,0,0,0,.37,1.37.78.78,0,0,0,.36-.1c2.07-1.21,4.21-2.39,6.38-3.53A.72.72,0,0,0,494.74,395Zm135.91,7.34c-1.69-1.79-3.47-3.52-5.3-5.13a.71.71,0,0,0-1,.06.72.72,0,0,0,.06,1c1.78,1.59,3.53,3.28,5.2,5a.72.72,0,0,0,.53.23.74.74,0,0,0,.5-.2A.73.73,0,0,0,630.65,402.35Zm-148.58,0a.73.73,0,0,0-1-.22c-2.1,1.36-4.14,2.78-6.06,4.18a.74.74,0,0,0,.43,1.33.91.91,0,0,0,.44-.14c1.89-1.4,3.91-2.79,6-4.14A.73.73,0,0,0,482.07,402.33Zm63.11,1.41a.72.72,0,0,0-1,.09c-1.56,1.82-3.19,3.65-4.86,5.42a.73.73,0,0,0,0,1,.74.74,0,0,0,.5.2.75.75,0,0,0,.53-.23c1.68-1.8,3.34-3.64,4.91-5.48A.73.73,0,0,0,545.18,403.74Zm-74.95,7.19a.72.72,0,0,0-1-.09c-2,1.66-3.8,3.33-5.44,5a.73.73,0,0,0,0,1,.71.71,0,0,0,.51.21.77.77,0,0,0,.52-.21c1.61-1.62,3.41-3.26,5.36-4.89A.73.73,0,0,0,470.23,410.93Zm65,3.52a.74.74,0,0,0-1,0c-1.74,1.68-3.55,3.34-5.36,4.93a.73.73,0,0,0-.07,1,.76.76,0,0,0,.55.25.7.7,0,0,0,.48-.19c1.83-1.6,3.66-3.28,5.42-5A.74.74,0,0,0,535.22,414.45Zm-75.36,6.77a.73.73,0,0,0-1,.12,34.75,34.75,0,0,0-4,6.31.74.74,0,0,0,1.33.63,32.8,32.8,0,0,1,3.81-6A.72.72,0,0,0,459.86,421.22Zm64.4,2.93a.74.74,0,0,0-1-.12c-1.91,1.52-3.86,3-5.81,4.38a.72.72,0,0,0,.42,1.32.7.7,0,0,0,.42-.13c2-1.4,4-2.89,5.89-4.42A.75.75,0,0,0,524.26,424.15Zm-11.89,8.54a.72.72,0,0,0-1-.23c-2.08,1.31-4.2,2.55-6.27,3.67a.73.73,0,0,0,.35,1.38.76.76,0,0,0,.35-.09c2.09-1.15,4.24-2.4,6.35-3.73A.72.72,0,0,0,512.37,432.69Zm-54.95,8.12a8.08,8.08,0,0,1-2.87-5.87.72.72,0,0,0-.76-.7.74.74,0,0,0-.69.77,9.4,9.4,0,0,0,3.36,6.89.68.68,0,0,0,.48.19.73.73,0,0,0,.48-1.28Zm42.13-1.08a.72.72,0,0,0-1-.36c-2.27,1-4.54,1.92-6.74,2.69a.73.73,0,0,0,.24,1.42.77.77,0,0,0,.25,0c2.24-.78,4.54-1.7,6.84-2.74A.73.73,0,0,0,499.55,439.73Zm-13.77,4.9a.72.72,0,0,0-.87-.55,52,52,0,0,1-7.11,1.16.74.74,0,0,0-.66.8.72.72,0,0,0,.73.66h.06a53.21,53.21,0,0,0,7.31-1.2A.72.72,0,0,0,485.78,444.63Zm-15.16.67a33.8,33.8,0,0,1-7-1.31.72.72,0,0,0-.91.48.74.74,0,0,0,.49.92,35.25,35.25,0,0,0,7.32,1.36h.06a.73.73,0,0,0,.73-.68A.72.72,0,0,0,470.62,445.3Z"/><path class="cls-2" d="M223.76,204.22a.72.72,0,0,0-.91-.49l-1.56.47a.73.73,0,0,0,.22,1.43.76.76,0,0,0,.21,0l1.55-.47A.73.73,0,0,0,223.76,204.22ZM215.27,207a.72.72,0,0,0-.94-.42c-2.29.87-4.58,1.82-6.79,2.82a.73.73,0,0,0,.3,1.4.67.67,0,0,0,.31-.07c2.18-1,4.43-1.93,6.7-2.78A.73.73,0,0,0,215.27,207Zm-13.33,6a.74.74,0,0,0-1-.29c-2.16,1.16-4.3,2.41-6.36,3.71a.73.73,0,0,0,.39,1.35.77.77,0,0,0,.39-.11c2-1.29,4.14-2.51,6.27-3.66A.74.74,0,0,0,201.94,213Zm-12.4,7.73a.72.72,0,0,0-1-.15c-2,1.45-3.92,3-5.76,4.58a.73.73,0,0,0-.08,1,.72.72,0,0,0,.55.26.74.74,0,0,0,.48-.18c1.82-1.56,3.73-3.08,5.68-4.52A.73.73,0,0,0,189.54,220.7Zm-11.16,9.43a.72.72,0,0,0-1,0c-1.73,1.73-3.42,3.55-5,5.4a.73.73,0,0,0,.08,1,.69.69,0,0,0,.47.18.72.72,0,0,0,.55-.26c1.57-1.82,3.23-3.61,4.94-5.31A.73.73,0,0,0,178.38,230.13Zm-9.61,11a.73.73,0,0,0-1,.15c-1.45,2-2.84,4-4.13,6.11a.75.75,0,0,0,.24,1,.79.79,0,0,0,.39.11.73.73,0,0,0,.62-.35c1.27-2,2.64-4.06,4.06-6A.73.73,0,0,0,168.77,241.14ZM161,253.49a.74.74,0,0,0-1,.32c-1.13,2.18-2.18,4.42-3.12,6.68a.73.73,0,0,0,.68,1,.74.74,0,0,0,.67-.45c.93-2.22,2-4.42,3.07-6.57A.75.75,0,0,0,161,253.49Zm-5.76,13.43a.72.72,0,0,0-.92.47c-.77,2.33-1.45,4.72-2,7.09a.73.73,0,0,0,.54.88l.17,0a.73.73,0,0,0,.71-.56c.56-2.33,1.23-4.68,2-7A.73.73,0,0,0,155.22,266.92ZM151.7,281.1a.74.74,0,0,0-.83.61c-.38,2.43-.64,4.9-.8,7.33a.72.72,0,0,0,.68.78h.05a.74.74,0,0,0,.73-.69c.16-2.39.42-4.82.79-7.21A.74.74,0,0,0,151.7,281.1Zm-.33,15.28a.73.73,0,0,0-1.46,0c.05,2.46.22,4.94.5,7.35a.72.72,0,0,0,.72.65h.09a.73.73,0,0,0,.64-.81C151.59,301.24,151.42,298.81,151.37,296.38Zm3.51,21.36c-.73-2.27-1.35-4.62-1.86-7a.72.72,0,0,0-.86-.56.71.71,0,0,0-.56.86,72.44,72.44,0,0,0,1.89,7.13.71.71,0,0,0,.69.51.91.91,0,0,0,.23,0A.74.74,0,0,0,154.88,317.74ZM268.37,320a16.83,16.83,0,0,0-7.26,2.19.74.74,0,0,0-.29,1,.73.73,0,0,0,1,.29,15.3,15.3,0,0,1,6.62-2,.73.73,0,1,0-.06-1.46Zm11.7,8.49a13.42,13.42,0,0,0-4.38-6.24.74.74,0,0,0-.9,1.17,11.93,11.93,0,0,1,3.9,5.56.73.73,0,0,0,.69.48.69.69,0,0,0,.25,0A.72.72,0,0,0,280.07,328.45ZM160.69,331a65.92,65.92,0,0,1-3.25-6.45.73.73,0,0,0-1-.37.71.71,0,0,0-.38,1,66.63,66.63,0,0,0,3.33,6.59.71.71,0,0,0,.63.37.82.82,0,0,0,.37-.1A.72.72,0,0,0,160.69,331Zm95.43-4.34a.73.73,0,0,0-1,0,45.09,45.09,0,0,0-5,5.47.73.73,0,0,0,.12,1,.77.77,0,0,0,.45.16.72.72,0,0,0,.58-.29,43.72,43.72,0,0,1,4.85-5.29A.74.74,0,0,0,256.12,326.61Zm24.26,8.56a.72.72,0,0,0-.77.68,22,22,0,0,1-1.58,6.87.73.73,0,0,0,.41.95.66.66,0,0,0,.28.05.71.71,0,0,0,.67-.46,23.41,23.41,0,0,0,1.68-7.32A.73.73,0,0,0,280.38,335.17Zm-111.12,7.39a63.34,63.34,0,0,1-4.62-5.56.73.73,0,0,0-1-.16.74.74,0,0,0-.15,1,64.44,64.44,0,0,0,4.72,5.69.74.74,0,0,0,.53.23.73.73,0,0,0,.5-.19A.74.74,0,0,0,169.26,342.56Zm77.65-4.66a.74.74,0,0,0-1,.26,73.05,73.05,0,0,0-3.43,6.54.72.72,0,0,0,.36,1,.63.63,0,0,0,.3.07.74.74,0,0,0,.67-.43,68.81,68.81,0,0,1,3.36-6.4A.75.75,0,0,0,246.91,337.9Zm-66.7,14a64.39,64.39,0,0,1-5.74-4.38.73.73,0,0,0-.95,1.12,67.87,67.87,0,0,0,5.88,4.47.65.65,0,0,0,.4.12.73.73,0,0,0,.41-1.33Zm95.32-3.21a.73.73,0,0,0-1,.14,31.35,31.35,0,0,1-5,5.1.72.72,0,0,0-.1,1,.72.72,0,0,0,1,.1,32.72,32.72,0,0,0,5.2-5.34A.74.74,0,0,0,275.53,348.73Zm-34.9,2.36a.73.73,0,0,0-.94.44c-.81,2.26-1.56,4.63-2.21,7a.73.73,0,0,0,.51.9.63.63,0,0,0,.19,0,.74.74,0,0,0,.71-.54c.64-2.37,1.38-4.69,2.18-6.93A.73.73,0,0,0,240.63,351.09ZM193,358.69a71.3,71.3,0,0,1-6.56-3,.73.73,0,0,0-.69,1.29,69.21,69.21,0,0,0,6.7,3.1.7.7,0,0,0,.27.06.73.73,0,0,0,.28-1.41Zm71.6-.44a.73.73,0,0,0-1-.29,48.61,48.61,0,0,1-6.56,3,.73.73,0,0,0,.25,1.41.69.69,0,0,0,.25,0,47.43,47.43,0,0,0,6.76-3A.72.72,0,0,0,264.58,358.25Zm-57.73,4.55c-2.4-.48-4.76-1.07-7-1.74a.74.74,0,1,0-.42,1.41c2.31.68,4.72,1.27,7.16,1.76a.32.32,0,0,0,.14,0,.73.73,0,0,0,.15-1.45Zm44.14.7a.75.75,0,0,0-.88-.56,71.56,71.56,0,0,1-7.12,1.28.74.74,0,0,0-.63.82.72.72,0,0,0,.72.64h.1c2.51-.33,4.95-.77,7.26-1.31A.73.73,0,0,0,251,363.5Zm-29.74,1.16c-2.35-.18-4.79-.42-7.25-.72a.74.74,0,0,0-.81.64.72.72,0,0,0,.63.81c2.49.31,4.94.55,7.32.72h.06a.73.73,0,0,0,.73-.67A.74.74,0,0,0,221.25,364.66Zm15.39.49a.57.57,0,0,0-.26,0,.74.74,0,0,0-.61-.28q-3.51.18-7.26.11a.74.74,0,1,0,0,1.47q3.69.06,7.17-.11c-.43,2.18-.79,4.41-1.09,6.64a.73.73,0,0,0,.63.83h.09a.71.71,0,0,0,.72-.63c.33-2.42.73-4.83,1.2-7.17A.73.73,0,0,0,236.64,365.15Zm-2,14.47a.74.74,0,0,0-.78.68c-.18,2.42-.29,4.89-.32,7.35a.72.72,0,0,0,.72.74h0a.72.72,0,0,0,.73-.72c.05-2.43.15-4.87.33-7.27A.73.73,0,0,0,234.59,379.62Zm.44,15.32a.73.73,0,0,0-.76-.7.74.74,0,0,0-.7.76c.1,2.43.27,4.9.5,7.34a.73.73,0,0,0,.72.66h.07a.74.74,0,0,0,.66-.8C235.29,399.78,235.13,397.34,235,394.94Zm2.6,21.65c-.47-2.37-.89-4.79-1.24-7.17a.73.73,0,0,0-1.45.21c.35,2.41.78,4.85,1.26,7.25a.74.74,0,0,0,.71.59l.15,0A.73.73,0,0,0,237.63,416.59Zm3.56,14.1c-.7-2.31-1.37-4.67-1.95-7a.73.73,0,0,0-1.42.35c.6,2.36,1.26,4.74,2,7.08a.73.73,0,0,0,.7.52.83.83,0,0,0,.22,0A.73.73,0,0,0,241.19,430.69Zm4.93,13.69c-.93-2.24-1.81-4.52-2.63-6.78a.72.72,0,0,0-.93-.44.73.73,0,0,0-.45.93c.83,2.29,1.72,4.59,2.66,6.86a.75.75,0,0,0,.68.44.72.72,0,0,0,.28-.05A.73.73,0,0,0,246.12,444.38Zm6.21,13.17c-1.14-2.14-2.23-4.34-3.26-6.51a.73.73,0,1,0-1.32.62c1,2.2,2.14,4.41,3.28,6.57a.72.72,0,0,0,.65.39.84.84,0,0,0,.34-.08A.74.74,0,0,0,252.33,457.55Zm7.37,12.54c-1.32-2-2.6-4.11-3.83-6.19a.73.73,0,1,0-1.26.74c1.24,2.1,2.53,4.2,3.86,6.25a.74.74,0,0,0,1,.21A.72.72,0,0,0,259.7,470.09ZM268.14,482c-1.48-1.92-2.95-3.89-4.35-5.85a.73.73,0,0,0-1-.17.74.74,0,0,0-.17,1c1.42,2,2.89,4,4.39,5.89a.73.73,0,0,0,1,.13A.72.72,0,0,0,268.14,482Zm9.39,11.12-.18-.2c-1.57-1.73-3.13-3.5-4.62-5.27a.73.73,0,1,0-1.12.94c1.5,1.79,3.07,3.57,4.67,5.32l.17.2a.78.78,0,0,0,.55.23.7.7,0,0,0,.49-.19A.72.72,0,0,0,277.53,493.08Zm253.07,3.26a.73.73,0,0,0-.92-.47s-2.54.85-7,2.21a.73.73,0,0,0,.2,1.44.85.85,0,0,0,.22,0c4.47-1.36,7-2.21,7-2.21A.73.73,0,0,0,530.6,496.34Zm-14,4.33a.74.74,0,0,0-.91-.5c-2.31.68-4.68,1.35-7,2a.74.74,0,0,0,.2,1.44l.2,0c2.36-.66,4.74-1.33,7.05-2A.73.73,0,0,0,516.59,500.67Zm-228.23,2c-2-1.42-3.88-2.94-5.66-4.5a.73.73,0,0,0-1,.06.72.72,0,0,0,.07,1,73.35,73.35,0,0,0,5.78,4.6.7.7,0,0,0,.42.13.71.71,0,0,0,.59-.3A.72.72,0,0,0,288.36,502.64Zm214.12,2a.75.75,0,0,0-.9-.52q-3.37.9-7.07,1.85a.73.73,0,0,0,.18,1.44l.18,0q3.7-.94,7.09-1.85A.74.74,0,0,0,502.48,504.62Zm-14.19,3.64a.74.74,0,0,0-.88-.54c-2.3.56-4.68,1.14-7.12,1.7a.73.73,0,0,0,.17,1.44.5.5,0,0,0,.17,0c2.44-.56,4.82-1.13,7.12-1.69A.73.73,0,0,0,488.29,508.26ZM300.83,510c-2.21-1.08-4.36-2.23-6.39-3.43a.73.73,0,0,0-.74,1.26c2.07,1.22,4.25,2.39,6.49,3.48a.74.74,0,0,0,1-.34A.72.72,0,0,0,300.83,510ZM474,511.59a.74.74,0,0,0-.88-.55q-3.51.78-7.15,1.53a.76.76,0,0,0-.57.88.75.75,0,0,0,.73.58l.14,0c2.44-.51,4.82-1,7.17-1.55A.73.73,0,0,0,474,511.59ZM314.3,515.42c-2.34-.77-4.64-1.6-6.83-2.47a.73.73,0,1,0-.54,1.35c2.22.89,4.55,1.73,6.91,2.51a.66.66,0,0,0,.23,0,.73.73,0,0,0,.23-1.43ZM458.85,514c-2.39.48-4.81.94-7.18,1.38a.72.72,0,0,0-.59.85.74.74,0,0,0,.72.6h.13c2.39-.44,4.8-.91,7.2-1.38a.73.73,0,0,0-.28-1.44Zm-14.38,2.67c-2.41.41-4.84.81-7.21,1.19a.73.73,0,0,0,.11,1.45h.12c2.38-.37,4.81-.78,7.23-1.2a.72.72,0,0,0,.59-.84A.71.71,0,0,0,444.47,516.7Zm-116.12,2.48c-2.41-.51-4.79-1.09-7.08-1.7a.73.73,0,0,0-.89.53.74.74,0,0,0,.51.89c2.31.62,4.72,1.19,7.15,1.71l.16,0a.73.73,0,0,0,.15-1.45ZM430,519c-2.43.35-4.87.68-7.24,1a.73.73,0,0,0-.63.82.73.73,0,0,0,.73.64H423c2.37-.31,4.82-.64,7.26-1A.73.73,0,1,0,430,519Zm-87.32,2.62c-2.44-.31-4.87-.67-7.21-1.06a.72.72,0,0,0-.84.59.73.73,0,0,0,.6.85c2.36.4,4.8.75,7.26,1.07h.1a.73.73,0,0,0,.09-1.46Zm72.83-.75c-2.42.28-4.86.54-7.26.78a.73.73,0,0,0,.08,1.45h.06c2.41-.23,4.85-.49,7.29-.77a.74.74,0,0,0,.64-.81A.74.74,0,0,0,415.54,520.86ZM401,522.28c-2.44.2-4.9.37-7.29.52a.73.73,0,0,0,0,1.45h.05c2.4-.14,4.86-.32,7.32-.52a.73.73,0,1,0-.12-1.45Zm-43.79.68c-2.45-.15-4.89-.33-7.27-.55a.71.71,0,0,0-.79.66.74.74,0,0,0,.66.8c2.39.21,4.84.4,7.31.56h.05a.74.74,0,0,0,0-1.47Zm29.19.21c-2.45.1-4.92.17-7.31.21a.75.75,0,0,0-.72.75.73.73,0,0,0,.73.71h0c2.4,0,4.88-.12,7.34-.21a.73.73,0,1,0-.06-1.46Zm-14.61.26c-2.46,0-4.92-.06-7.3-.14a.74.74,0,0,0,0,1.47c2.39.07,4.86.12,7.33.13a.73.73,0,1,0,0-1.46Z"/><path class="cls-2" d="M259.75,496.15a.73.73,0,0,0-1-.18s-2.24,1.59-5.93,4.43a.73.73,0,0,0-.14,1,.75.75,0,0,0,.58.29.81.81,0,0,0,.45-.15c3.67-2.82,5.85-4.38,5.88-4.39A.74.74,0,0,0,259.75,496.15ZM248,505.05a.72.72,0,0,0-1-.12c-1.88,1.51-3.8,3.07-5.69,4.64a.73.73,0,0,0,.46,1.29.74.74,0,0,0,.47-.16c1.89-1.57,3.8-3.13,5.67-4.63A.72.72,0,0,0,248,505.05Zm-11.29,9.34a.73.73,0,0,0-1-.07c-1.86,1.58-3.71,3.21-5.53,4.82a.74.74,0,0,0-.06,1,.75.75,0,0,0,.55.24.74.74,0,0,0,.48-.18c1.81-1.62,3.66-3.23,5.51-4.82A.74.74,0,0,0,236.75,514.39Zm-11,9.72a.74.74,0,0,0-1,0c-1.8,1.65-3.6,3.34-5.35,5a.74.74,0,0,0,0,1,.76.76,0,0,0,.53.22.7.7,0,0,0,.51-.2c1.75-1.66,3.54-3.35,5.33-5A.74.74,0,0,0,225.79,524.11Zm-10.61,10.11a.73.73,0,0,0-1,0c-1.74,1.72-3.48,3.48-5.16,5.21a.73.73,0,0,0,0,1,.67.67,0,0,0,.51.21.7.7,0,0,0,.52-.22c1.67-1.73,3.41-3.47,5.14-5.2A.73.73,0,0,0,215.18,534.22ZM205,544.71a.73.73,0,0,0-1,0c-1.68,1.81-3.35,3.64-4.94,5.43a.72.72,0,0,0,.06,1,.72.72,0,0,0,1-.06c1.59-1.79,3.25-3.6,4.92-5.4A.74.74,0,0,0,205,544.71Zm-9.76,10.92a.72.72,0,0,0-1,.09c-1.6,1.88-3.18,3.79-4.68,5.66a.73.73,0,1,0,1.14.91c1.5-1.86,3.06-3.75,4.65-5.62A.73.73,0,0,0,195.2,555.63ZM186,567a.72.72,0,0,0-1,.14c-1.5,2-3,4-4.36,5.9a.73.73,0,0,0,.17,1,.7.7,0,0,0,.43.15.77.77,0,0,0,.59-.31c1.39-1.94,2.85-3.92,4.33-5.88A.72.72,0,0,0,186,567Zm-8.54,11.9a.75.75,0,0,0-1,.2c-1.37,2.07-2.7,4.15-4,6.19a.73.73,0,0,0,.25,1,.68.68,0,0,0,.38.12.73.73,0,0,0,.62-.35c1.25-2,2.57-4.1,3.93-6.15A.72.72,0,0,0,177.46,578.91Zm-7.7,12.45a.71.71,0,0,0-1,.28c-1.22,2.17-2.38,4.35-3.45,6.48a.73.73,0,1,0,1.31.66c1.06-2.11,2.21-4.28,3.41-6.43A.72.72,0,0,0,169.76,591.36Zm-6.61,13a.74.74,0,0,0-1,.38c-1,2.27-1.93,4.56-2.78,6.8a.74.74,0,0,0,.43.95.73.73,0,0,0,.25,0,.74.74,0,0,0,.69-.47c.83-2.22,1.76-4.48,2.75-6.74A.73.73,0,0,0,163.15,604.4Zm-5.21,13.66a.73.73,0,0,0-.91.49c-.73,2.38-1.36,4.77-1.91,7.11a.73.73,0,0,0,.55.87.5.5,0,0,0,.17,0,.72.72,0,0,0,.71-.57c.53-2.29,1.16-4.66,1.88-7A.74.74,0,0,0,157.94,618.06Zm-3.35,14.22a.74.74,0,0,0-.84.62c-.35,2.47-.6,5-.73,7.34a.74.74,0,0,0,.7.77h0a.73.73,0,0,0,.73-.69c.12-2.35.36-4.78.71-7.21A.73.73,0,0,0,154.59,632.28Zm-.09,15.26a.74.74,0,0,0-.78-.68.72.72,0,0,0-.68.76,62.57,62.57,0,0,0,.83,7.35.74.74,0,0,0,.72.6h.13a.74.74,0,0,0,.6-.85A59.54,59.54,0,0,1,154.5,647.54Zm5.11,20.9a54,54,0,0,1-2.6-6.72.73.73,0,0,0-1.4.43,56.42,56.42,0,0,0,2.67,6.91.74.74,0,0,0,.67.41.71.71,0,0,0,.31-.06A.74.74,0,0,0,159.61,668.44Zm7.79,12.08a52.77,52.77,0,0,1-4.3-5.78.73.73,0,1,0-1.23.8,54.52,54.52,0,0,0,4.42,5.92.72.72,0,0,0,.56.27.71.71,0,0,0,.47-.18A.73.73,0,0,0,167.4,680.52Zm10.66,9.69a64.33,64.33,0,0,1-5.63-4.52.73.73,0,1,0-1,1.08,62.36,62.36,0,0,0,5.76,4.63.75.75,0,0,0,1-.17A.73.73,0,0,0,178.06,690.21Zm81.71,4.31a.73.73,0,0,0-1-.24c-1.51.92-3.11,1.8-4.76,2.61a.72.72,0,0,0-.34,1,.74.74,0,0,0,.65.42.66.66,0,0,0,.32-.08c1.69-.82,3.34-1.72,4.9-2.68A.73.73,0,0,0,259.77,694.52Zm-69.1,2.73c-2.24-1-4.42-2-6.5-3.19a.73.73,0,1,0-.71,1.28,72.73,72.73,0,0,0,6.63,3.25.72.72,0,0,0,.29.06.73.73,0,0,0,.67-.44A.74.74,0,0,0,190.67,697.25Zm57.59,2.86a.74.74,0,0,0-.94-.46,69.6,69.6,0,0,1-6.94,2,.73.73,0,0,0-.54.88.72.72,0,0,0,.71.56h.17a72.63,72.63,0,0,0,7.09-2.06A.74.74,0,0,0,248.26,700.11Zm-43.82,1.57c-2.37-.52-4.72-1.16-7-1.89a.73.73,0,1,0-.44,1.39c2.31.74,4.71,1.4,7.12,1.93a.41.41,0,0,0,.16,0,.73.73,0,0,0,.16-1.45Zm14.35,1.92c-2.4-.11-4.83-.32-7.22-.64a.73.73,0,0,0-.82.63.74.74,0,0,0,.63.82c2.43.32,4.9.54,7.35.65h0a.73.73,0,0,0,0-1.46Zm14.47-.62c-2.36.32-4.79.53-7.21.63a.74.74,0,0,0-.71.77.74.74,0,0,0,.74.7h0c2.47-.11,4.94-.32,7.35-.65a.73.73,0,0,0-.2-1.45Z"/><path class="cls-2" d="M167.58,326.53c-2.44-.23-4.91-.37-7.35-.41a.71.71,0,0,0-.75.72.73.73,0,0,0,.72.74c2.41,0,4.85.18,7.25.4h.07a.72.72,0,0,0,.72-.66A.73.73,0,0,0,167.58,326.53Zm-14.72-.25c-2.43.14-4.89.38-7.33.71a.73.73,0,0,0-.62.83.72.72,0,0,0,.72.63h.1c2.4-.32,4.82-.56,7.22-.7a.74.74,0,0,0,.68-.78A.72.72,0,0,0,152.86,326.28ZM182.1,329c-2.39-.6-4.82-1.11-7.21-1.52a.73.73,0,1,0-.26,1.44c2.37.41,4.76.91,7.11,1.5l.18,0a.72.72,0,0,0,.7-.55A.73.73,0,0,0,182.1,329Zm-43-.2a.73.73,0,0,0-.87-.56c-2.36.5-4.77,1.1-7.14,1.78a.73.73,0,0,0,.2,1.43l.2,0c2.34-.68,4.71-1.27,7.05-1.77A.72.72,0,0,0,139.14,328.82Zm56.93,4.81c-2.26-.93-4.59-1.8-6.9-2.56a.73.73,0,1,0-.46,1.39c2.28.75,4.57,1.6,6.81,2.52a.66.66,0,0,0,.28,0,.75.75,0,0,0,.68-.45A.74.74,0,0,0,196.07,333.63Zm-71-.88a.74.74,0,0,0-.94-.44c-2.27.82-4.57,1.74-6.84,2.72a.75.75,0,0,0-.38,1,.74.74,0,0,0,.67.44.6.6,0,0,0,.3-.07c2.23-1,4.51-1.87,6.75-2.68A.74.74,0,0,0,125.07,332.75Zm84.19,7.42c-2.09-1.23-4.27-2.41-6.48-3.5a.74.74,0,0,0-1,.33.73.73,0,0,0,.34,1c2.16,1.08,4.31,2.24,6.39,3.46a.69.69,0,0,0,.37.1.72.72,0,0,0,.62-.36A.74.74,0,0,0,209.26,340.17Zm-97.63-1.68a.75.75,0,0,0-1-.32c-1,.52-2.07,1.07-3.1,1.63s-2.24,1.26-3.34,1.94a.72.72,0,0,0-.24,1,.75.75,0,0,0,.62.35A.76.76,0,0,0,105,343c1.08-.66,2.18-1.3,3.28-1.89s2.05-1.09,3.07-1.62A.73.73,0,0,0,111.63,338.49Zm109.73,10.19a61,61,0,0,0-5.88-4.53.73.73,0,0,0-.84,1.2,64.27,64.27,0,0,1,5.74,4.41.72.72,0,0,0,.49.19.73.73,0,0,0,.49-1.27ZM99.14,346a.73.73,0,0,0-1-.14c-1.93,1.45-3.84,3-5.68,4.7a.73.73,0,0,0-.05,1,.71.71,0,0,0,.54.24.72.72,0,0,0,.49-.19c1.81-1.64,3.69-3.19,5.58-4.61A.75.75,0,0,0,99.14,346Zm-10.93,9.69a.73.73,0,0,0-1,0c-1.64,1.75-3.27,3.62-4.84,5.55a.73.73,0,0,0,.57,1.19.72.72,0,0,0,.57-.27c1.54-1.9,3.15-3.75,4.77-5.46A.75.75,0,0,0,88.21,355.72ZM78.91,367a.74.74,0,0,0-1,.18c-1.38,2-2.75,4-4.06,6.14a.72.72,0,0,0,.24,1,.65.65,0,0,0,.38.11.73.73,0,0,0,.63-.35c1.29-2.08,2.64-4.12,4-6.06A.74.74,0,0,0,78.91,367Zm-7.78,12.38a.74.74,0,0,0-1,.29c-1.15,2.11-2.28,4.31-3.36,6.53a.73.73,0,0,0,.34,1,.71.71,0,0,0,.31.08.73.73,0,0,0,.66-.42c1.07-2.2,2.19-4.38,3.34-6.47A.74.74,0,0,0,71.13,379.37ZM64.68,392.5a.72.72,0,0,0-1,.38c-1,2.22-1.88,4.52-2.75,6.81a.72.72,0,0,0,.42.94.63.63,0,0,0,.26.05.71.71,0,0,0,.68-.47c.87-2.28,1.79-4.56,2.72-6.75A.72.72,0,0,0,64.68,392.5Zm-5.24,13.64a.73.73,0,0,0-.92.47c-.77,2.29-1.5,4.64-2.2,7a.73.73,0,0,0,.5.91.76.76,0,0,0,.21,0,.74.74,0,0,0,.7-.53c.68-2.34,1.41-4.69,2.17-7A.73.73,0,0,0,59.44,406.14Zm-4.16,14a.72.72,0,0,0-.88.53c-.6,2.35-1.16,4.76-1.68,7.16a.74.74,0,0,0,.56.87h.16a.72.72,0,0,0,.71-.57c.51-2.38,1.07-4.78,1.67-7.11A.74.74,0,0,0,55.28,420.18Zm-3.13,14.3a.73.73,0,0,0-.85.59c-.43,2.4-.82,4.84-1.17,7.25a.74.74,0,0,0,.62.83h.11a.72.72,0,0,0,.72-.62c.35-2.4.73-4.82,1.17-7.2A.74.74,0,0,0,52.15,434.48ZM50,449a.72.72,0,0,0-.8.64c-.26,2.45-.48,4.91-.66,7.32a.74.74,0,0,0,.68.78h0A.72.72,0,0,0,50,457c.17-2.4.4-4.85.66-7.26A.75.75,0,0,0,50,449Zm-7,18.91a34.64,34.64,0,0,0-7.46.25.73.73,0,0,0,.11,1.46h.1a33.61,33.61,0,0,1,7.14-.25.72.72,0,0,0,.78-.67A.73.73,0,0,0,43,467.87Zm14.18,4.28a36.87,36.87,0,0,0-6.86-2.91.74.74,0,0,0-.78.23c0-1.7,0-3.44.1-5.17a.73.73,0,0,0-.71-.75.74.74,0,0,0-.76.71c0,1.91-.08,3.83-.08,5.7v1.64a.73.73,0,0,0,.73.73h0a.73.73,0,0,0,.72-.74c0-.39,0-.79,0-1.18a.77.77,0,0,0,.35.23,35.21,35.21,0,0,1,6.58,2.79.63.63,0,0,0,.35.09.72.72,0,0,0,.64-.37A.74.74,0,0,0,57.19,472.15Zm-27.86-1.56a.72.72,0,0,0-1-.34,23.3,23.3,0,0,0-6.09,4.41.72.72,0,0,0,0,1,.76.76,0,0,0,.52.22.78.78,0,0,0,.52-.22,21.11,21.11,0,0,1,5.7-4.12A.74.74,0,0,0,29.33,470.59ZM68.7,481.45a47.78,47.78,0,0,0-5.36-5.13.73.73,0,1,0-.92,1.14,47.31,47.31,0,0,1,5.19,5,.72.72,0,0,0,1,.06A.73.73,0,0,0,68.7,481.45Zm-18.9-2.59a.73.73,0,0,0-1.46.08c.14,2.51.35,5,.61,7.33a.74.74,0,0,0,.72.66h.08a.73.73,0,0,0,.65-.81C50.14,483.78,49.94,481.34,49.8,478.86Zm-31,1.5a.73.73,0,0,0-1,.26,38.47,38.47,0,0,0-3.05,6.8.73.73,0,0,0,.46.93.93.93,0,0,0,.24,0,.73.73,0,0,0,.69-.5A37.11,37.11,0,0,1,19,481.35.72.72,0,0,0,18.76,480.36ZM77,493.72a56.89,56.89,0,0,0-3.71-6.42.75.75,0,0,0-1-.2.73.73,0,0,0-.2,1,53.18,53.18,0,0,1,3.61,6.24.74.74,0,0,0,.66.41.88.88,0,0,0,.32-.07A.74.74,0,0,0,77,493.72ZM53,500.38c-.6-2.21-1.13-4.59-1.57-7.08a.73.73,0,0,0-1.44.26c.45,2.53,1,5,1.6,7.2a.72.72,0,0,0,.71.54.55.55,0,0,0,.18,0A.73.73,0,0,0,53,500.38ZM13.72,494a.74.74,0,0,0-.85.59A61.11,61.11,0,0,0,12,502a.73.73,0,0,0,.69.77h0a.73.73,0,0,0,.73-.69,60.15,60.15,0,0,1,.83-7.17A.73.73,0,0,0,13.72,494Zm66,6.58a.73.73,0,1,0-1.39.45,37.81,37.81,0,0,1,1.58,7,.73.73,0,0,0,.72.64h.09a.73.73,0,0,0,.64-.82A39.28,39.28,0,0,0,79.75,500.59Zm-21.19,13a37,37,0,0,1-3.27-6.36.73.73,0,0,0-.95-.4.71.71,0,0,0-.4.95,38.22,38.22,0,0,0,3.4,6.62.75.75,0,0,0,.61.33.7.7,0,0,0,.4-.12A.72.72,0,0,0,58.56,513.59Zm-45.1-4.33a.72.72,0,0,0-.77-.69.74.74,0,0,0-.69.77c.12,2.42.37,4.89.73,7.35a.72.72,0,0,0,.72.62h.11a.74.74,0,0,0,.61-.84C13.82,514.06,13.58,511.64,13.46,509.26Zm67.17,5.24a.73.73,0,0,0-.87.56,8.15,8.15,0,0,1-3.49,5.53.74.74,0,0,0,.39,1.36.76.76,0,0,0,.38-.11,9.53,9.53,0,0,0,4.14-6.47A.72.72,0,0,0,80.63,514.5Zm-10.92,6.88a21.15,21.15,0,0,1-3.25-.91,13.16,13.16,0,0,1-3.16-1.71.73.73,0,1,0-.86,1.18,14.52,14.52,0,0,0,3.52,1.9,22.84,22.84,0,0,0,3.48,1h.13a.72.72,0,0,0,.72-.59A.73.73,0,0,0,69.71,521.38ZM17.6,530.54c-.79-2.28-1.47-4.62-2-7a.72.72,0,0,0-.88-.53.73.73,0,0,0-.54.88c.58,2.39,1.28,4.77,2.07,7.09a.75.75,0,0,0,.69.49.85.85,0,0,0,.23,0A.74.74,0,0,0,17.6,530.54Zm5.93,13.19c-1.18-2.07-2.28-4.24-3.28-6.45a.73.73,0,1,0-1.33.6,73.57,73.57,0,0,0,3.34,6.57.73.73,0,0,0,.64.37.8.8,0,0,0,.36-.09A.73.73,0,0,0,23.53,543.73Zm108.11,3.2a.73.73,0,0,0-.94.43,32,32,0,0,1-3.22,6.36.73.73,0,0,0,.61,1.13.74.74,0,0,0,.62-.33,33.76,33.76,0,0,0,3.36-6.65A.73.73,0,0,0,131.64,546.93ZM32,555.47a67.36,67.36,0,0,1-4.52-5.65.73.73,0,1,0-1.19.85,68.94,68.94,0,0,0,4.61,5.77.75.75,0,0,0,.55.24.78.78,0,0,0,.49-.18A.74.74,0,0,0,32,555.47ZM124,559.29a.73.73,0,0,0-1,0,45.64,45.64,0,0,1-5.41,4.74.73.73,0,0,0-.15,1,.75.75,0,0,0,.59.29.72.72,0,0,0,.43-.15,47.85,47.85,0,0,0,5.59-4.89A.73.73,0,0,0,124,559.29ZM42.72,565a60,60,0,0,1-5.66-4.47.74.74,0,0,0-1,1.1,62.9,62.9,0,0,0,5.8,4.57.76.76,0,0,0,.42.13.71.71,0,0,0,.6-.32A.72.72,0,0,0,42.72,565Zm69.8,3.22a.74.74,0,0,0-1-.29,62.12,62.12,0,0,1-6.49,3.21.73.73,0,0,0,.29,1.4.92.92,0,0,0,.28-.05,69.41,69.41,0,0,0,6.64-3.28A.73.73,0,0,0,112.52,568.26Zm-57,3.49a57.41,57.41,0,0,1-6.59-3,.73.73,0,0,0-.67,1.3,59.2,59.2,0,0,0,6.74,3,.75.75,0,0,0,.26,0,.73.73,0,0,0,.26-1.41Zm43.64,2.35a.73.73,0,0,0-.87-.55c-2.41.54-4.8,1-7.14,1.33a.73.73,0,0,0,.11,1.46h.11c2.36-.36,4.8-.82,7.24-1.36A.74.74,0,0,0,99.11,574.1Zm-29.66,1.13a65.91,65.91,0,0,1-7.1-1.34.73.73,0,1,0-.35,1.42,66.27,66.27,0,0,0,7.25,1.37h.1a.74.74,0,0,0,.73-.64A.73.73,0,0,0,69.45,575.23Zm14.44.43c-2.45.15-4.89.21-7.24.14a.73.73,0,0,0,0,1.46c.71,0,1.44,0,2.16,0,1.71,0,3.46,0,5.22-.17a.73.73,0,1,0-.1-1.46Z"/><path class="cls-2" d="M623.47,133.77a72.68,72.68,0,0,0-7.38,0,.73.73,0,1,0,.07,1.45c2.38-.1,4.83-.09,7.24,0h0a.73.73,0,0,0,.72-.7A.71.71,0,0,0,623.47,133.77Zm14.6,2.07c-2.39-.57-4.83-1-7.25-1.37a.73.73,0,0,0-.21,1.45c2.38.33,4.78.79,7.12,1.34l.17,0a.73.73,0,0,0,.71-.57A.72.72,0,0,0,638.07,135.84Zm-29.33-1.4a68.46,68.46,0,0,0-7.23,1.43.73.73,0,0,0,.17,1.44l.18,0a71.69,71.69,0,0,1,7.09-1.41.73.73,0,1,0-.21-1.44Zm-13.34,4.07a.75.75,0,0,0-.95-.43,63.12,63.12,0,0,0-6.74,3,.73.73,0,0,0,.34,1.38.81.81,0,0,0,.34-.08,60.18,60.18,0,0,1,6.58-3A.73.73,0,0,0,595.4,138.51Zm-13,6.63a.73.73,0,0,0-1-.19,55.42,55.42,0,0,0-5.77,4.66.73.73,0,0,0,0,1,.72.72,0,0,0,.53.23.78.78,0,0,0,.5-.19,52.39,52.39,0,0,1,5.61-4.53A.72.72,0,0,0,582.41,145.14Zm-10.82,9.76a.74.74,0,0,0-1,.1,55.67,55.67,0,0,0-4.28,6,.74.74,0,0,0,.24,1,.73.73,0,0,0,1-.24,54.17,54.17,0,0,1,4.16-5.88A.72.72,0,0,0,571.59,154.9Zm-7.79,12.31a.73.73,0,0,0-1,.37,63.47,63.47,0,0,0-2.6,6.93.73.73,0,0,0,.49.91.76.76,0,0,0,.21,0,.74.74,0,0,0,.7-.51,58.51,58.51,0,0,1,2.54-6.76A.75.75,0,0,0,563.8,167.21Zm-4.5,13.88a.73.73,0,0,0-.86.57c-.45,2.36-.81,4.81-1.06,7.31a.73.73,0,0,0,.67.79h.06a.74.74,0,0,0,.73-.65c.24-2.45.59-4.86,1-7.17A.72.72,0,0,0,559.3,181.09Zm-.8,15.23a.76.76,0,0,0-.74-.72.74.74,0,0,0-.73.74,58.25,58.25,0,0,0,.55,7.37.72.72,0,0,0,.72.63h.1a.74.74,0,0,0,.63-.82A55.73,55.73,0,0,1,558.5,196.32Zm100.29,11.16a15.46,15.46,0,0,0-7.24-2.27.76.76,0,0,0-.78.7.74.74,0,0,0,.69.77,13.83,13.83,0,0,1,6.57,2,.76.76,0,0,0,.38.11.75.75,0,0,0,.62-.35A.72.72,0,0,0,658.79,207.48ZM645,206.69a.73.73,0,0,0-.91-.48,34.22,34.22,0,0,0-6.83,3,.73.73,0,0,0,.36,1.36.74.74,0,0,0,.36-.09,33.28,33.28,0,0,1,6.54-2.88A.74.74,0,0,0,645,206.69Zm-82.22,10.72a57.23,57.23,0,0,1-2.32-6.83.73.73,0,0,0-.9-.52.75.75,0,0,0-.51.9,62,62,0,0,0,2.37,7,.72.72,0,0,0,.68.46.92.92,0,0,0,.28,0A.74.74,0,0,0,562.78,217.41Zm69.34-3.95a.73.73,0,0,0-1-.15c-1.84,1.41-3.74,3-5.64,4.77a.73.73,0,0,0,0,1,.71.71,0,0,0,.54.24.76.76,0,0,0,.5-.2c1.86-1.72,3.72-3.3,5.52-4.67A.71.71,0,0,0,632.12,213.46Zm35.09,6.21a24.91,24.91,0,0,0-3.06-6.85.73.73,0,1,0-1.22.8,23.46,23.46,0,0,1,2.88,6.45.74.74,0,0,0,.7.54l.2,0A.74.74,0,0,0,667.21,219.67Zm-45.94,3.56a.74.74,0,0,0-1,0c-1.12,1.18-2.25,2.43-3.38,3.72-.51.59-1,1.19-1.51,1.79a.75.75,0,0,0,.11,1,.77.77,0,0,0,.46.15.75.75,0,0,0,.57-.26c.47-.59,1-1.18,1.47-1.75,1.12-1.28,2.24-2.52,3.34-3.68A.74.74,0,0,0,621.27,223.23ZM569.74,230a68,68,0,0,1-3.85-6.12.74.74,0,0,0-1-.29.75.75,0,0,0-.29,1,66.78,66.78,0,0,0,3.94,6.26.71.71,0,0,0,.6.3.74.74,0,0,0,.42-.13A.72.72,0,0,0,569.74,230Zm98.69-3a.74.74,0,0,0-.78-.69.74.74,0,0,0-.69.77c0,.67.06,1.35.06,2a37.12,37.12,0,0,1-.36,5.14.75.75,0,0,0,.64.83h.09a.72.72,0,0,0,.72-.64,38.16,38.16,0,0,0,.37-5.32C668.49,228.44,668.46,227.72,668.43,227Zm-89.18,13.9c-1.77-1.67-3.46-3.42-5-5.21a.75.75,0,0,0-1-.07.73.73,0,0,0-.06,1,73,73,0,0,0,5.12,5.31.69.69,0,0,0,.5.2.74.74,0,0,0,.53-.23A.73.73,0,0,0,579.25,240.93Zm32.83-6.35a.72.72,0,0,0-1,.24,59,59,0,0,0-3.47,6.53.74.74,0,0,0,.37,1,.82.82,0,0,0,.3.07A.75.75,0,0,0,609,242a56.09,56.09,0,0,1,3.38-6.37A.73.73,0,0,0,612.08,234.58ZM666,240.79a.71.71,0,0,0-.92.45,35,35,0,0,1-3,6.51.74.74,0,0,0,.26,1,.73.73,0,0,0,1-.26,35.69,35.69,0,0,0,3.09-6.78A.72.72,0,0,0,666,240.79Zm-75.32,9.07c-2-1.31-4-2.73-5.9-4.21a.73.73,0,0,0-.9,1.15c1.92,1.51,3.94,2.95,6,4.29a.71.71,0,0,0,.39.12.73.73,0,0,0,.4-1.35Zm15.26-2.07a.72.72,0,0,0-.91.47,70.91,70.91,0,0,0-1.82,7.17.74.74,0,0,0,.58.86h.14a.73.73,0,0,0,.72-.59,65.33,65.33,0,0,1,1.78-7A.74.74,0,0,0,605.9,247.79Zm-2.49,8.92c-2.2-.95-4.4-2-6.52-3.15a.73.73,0,0,0-.7,1.29c2.16,1.16,4.4,2.24,6.65,3.2a.72.72,0,0,0,.29.06.73.73,0,0,0,.28-1.4Zm55.39-3.3a.73.73,0,0,0-1,0,27.33,27.33,0,0,1-5.57,4.4.72.72,0,0,0-.25,1,.7.7,0,0,0,.62.36.83.83,0,0,0,.38-.1,29,29,0,0,0,5.87-4.64A.74.74,0,0,0,658.8,253.41Zm-41.63,7.81c-2.31-.53-4.66-1.18-7-2a.75.75,0,0,0-.93.47.74.74,0,0,0,.47.92c2.37.78,4.76,1.45,7.11,2l.17,0a.73.73,0,0,0,.71-.57A.71.71,0,0,0,617.17,261.22Zm29.44,0a.73.73,0,0,0-.92-.46,42.33,42.33,0,0,1-7,1.62.73.73,0,0,0,.11,1.46h.11a44.35,44.35,0,0,0,7.23-1.68A.74.74,0,0,0,646.61,261.2Zm-15.1,1.67h-.13a61.33,61.33,0,0,1-7.08-.42.73.73,0,0,0-.17,1.45,62,62,0,0,0,7.25.44h.13a.74.74,0,0,0,0-1.47Zm-28.6-.79a.73.73,0,0,0-.79.65c-.24,2.39-.36,4.87-.39,7.38a.73.73,0,0,0,.73.73h0a.73.73,0,0,0,.73-.72c0-2.47.15-4.9.38-7.25A.73.73,0,0,0,602.91,262.08Zm.48,15.29a.72.72,0,0,0-.77-.68.74.74,0,0,0-.68.78c.15,2.38.39,4.84.71,7.32a.74.74,0,0,0,.73.64h.09a.73.73,0,0,0,.63-.82C603.79,282.16,603.55,279.72,603.39,277.37Zm3.37,21.54c-.57-2.4-1.07-4.8-1.51-7.12a.73.73,0,1,0-1.44.27c.44,2.34,1,4.77,1.53,7.19a.74.74,0,0,0,.72.56l.17,0A.72.72,0,0,0,606.76,298.91Zm4,14c-.76-2.33-1.48-4.68-2.13-7a.73.73,0,0,0-1.41.41c.66,2.3,1.38,4.66,2.16,7a.72.72,0,0,0,.69.49.61.61,0,0,0,.23,0A.73.73,0,0,0,610.75,312.92Zm5,13.71c-.92-2.27-1.8-4.56-2.62-6.8a.74.74,0,0,0-.94-.44.73.73,0,0,0-.43.94c.82,2.26,1.71,4.56,2.62,6.86a.75.75,0,0,0,.69.45.86.86,0,0,0,.27-.05A.75.75,0,0,0,615.77,326.63ZM621.58,340c-1-2.23-2.05-4.47-3-6.66a.73.73,0,1,0-1.34.59c1,2.19,2,4.45,3,6.69a.75.75,0,0,0,.66.42.67.67,0,0,0,.31-.07A.73.73,0,0,0,621.58,340Zm6.48,13.1c-1.14-2.17-2.26-4.37-3.32-6.51a.73.73,0,1,0-1.31.65c1.06,2.15,2.19,4.35,3.32,6.53a.74.74,0,0,0,.66.4.76.76,0,0,0,.33-.08A.74.74,0,0,0,628.06,353.12Zm7,12.82c-1.22-2.13-2.43-4.27-3.58-6.38a.73.73,0,1,0-1.28.71c1.16,2.11,2.36,4.26,3.59,6.39a.71.71,0,0,0,.63.37.69.69,0,0,0,.37-.1A.72.72,0,0,0,635.09,365.94Zm7.52,12.53c-1.29-2.07-2.58-4.17-3.81-6.23a.75.75,0,0,0-1-.26.73.73,0,0,0-.25,1c1.25,2.07,2.54,4.18,3.84,6.25a.7.7,0,0,0,.62.35.61.61,0,0,0,.38-.12A.71.71,0,0,0,642.61,378.47Zm8,12.26c-1.35-2-2.71-4-4.05-6.09a.74.74,0,0,0-1-.22.73.73,0,0,0-.21,1c1.34,2.07,2.71,4.12,4.06,6.12a.73.73,0,0,0,.6.33.76.76,0,0,0,.41-.13A.73.73,0,0,0,650.6,390.73Zm8.48,11.94s-1.65-2.16-4.32-5.92a.72.72,0,0,0-1-.18.74.74,0,0,0-.17,1c2.69,3.79,4.34,6,4.35,6a.75.75,0,0,0,.58.29.81.81,0,0,0,.45-.15A.73.73,0,0,0,659.08,402.67Z"/><path class="cls-2" d="M903,169.8a26.13,26.13,0,0,0-7.3-1.6.73.73,0,0,0-.78.67.72.72,0,0,0,.67.78,24.85,24.85,0,0,1,6.91,1.52.56.56,0,0,0,.25.05.72.72,0,0,0,.68-.47A.74.74,0,0,0,903,169.8Zm-13.9-.46a.72.72,0,0,0-.9-.5,11.9,11.9,0,0,0-6.47,4.07.73.73,0,0,0,.13,1,.68.68,0,0,0,.45.15.76.76,0,0,0,.58-.27,10.5,10.5,0,0,1,5.7-3.57A.72.72,0,0,0,889.11,169.34ZM915.35,178a40.33,40.33,0,0,0-5.72-4.76.73.73,0,0,0-.82,1.22,37.82,37.82,0,0,1,5.51,4.57.7.7,0,0,0,.51.22.74.74,0,0,0,.52-.22A.72.72,0,0,0,915.35,178Zm-33.15,9a19.19,19.19,0,0,1-1.35-6.74v-.12a.74.74,0,0,0-.72-.75.73.73,0,0,0-.75.72v.15a21,21,0,0,0,1.44,7.26.72.72,0,0,0,.68.47.82.82,0,0,0,.26,0A.74.74,0,0,0,882.2,187.06Zm42,2.76a61.7,61.7,0,0,0-4-6.19.74.74,0,0,0-1-.15.73.73,0,0,0-.15,1,61.11,61.11,0,0,1,4,6,.72.72,0,0,0,.63.38.71.71,0,0,0,.37-.1A.74.74,0,0,0,924.24,189.82ZM889.93,199a43.9,43.9,0,0,1-4.45-5.63.74.74,0,0,0-1-.21.73.73,0,0,0-.21,1,44.7,44.7,0,0,0,4.62,5.83.72.72,0,0,0,.53.23.74.74,0,0,0,.5-.2A.73.73,0,0,0,889.93,199Zm40.27,4.29c-.77-2.35-1.66-4.67-2.63-6.9a.74.74,0,0,0-1-.37.72.72,0,0,0-.37,1c1,2.18,1.82,4.45,2.58,6.77a.74.74,0,0,0,.7.5.57.57,0,0,0,.22,0A.72.72,0,0,0,930.2,203.32Zm-29.09,4.79a58.08,58.08,0,0,1-5.89-4.18.73.73,0,0,0-1,.11.72.72,0,0,0,.11,1,58.9,58.9,0,0,0,6,4.29.79.79,0,0,0,.39.11.73.73,0,0,0,.39-1.35Zm13,6.16a63.42,63.42,0,0,1-6.7-2.72.73.73,0,0,0-.62,1.33,68.42,68.42,0,0,0,6.84,2.78.73.73,0,0,0,.93-.46A.72.72,0,0,0,914.15,214.27Zm53.34.47a.74.74,0,0,0-.91-.5c-.81.24-1.62.46-2.42.67a.73.73,0,0,0,.19,1.44.57.57,0,0,0,.18,0l2.46-.67A.74.74,0,0,0,967.49,214.74Zm-35.32-4.3a.73.73,0,0,0-.87-.55.72.72,0,0,0-.56.87c.53,2.35,1,4.76,1.26,7.14a.74.74,0,0,0,.72.63h.1a.72.72,0,0,0,.63-.82C933.14,215.29,932.71,212.84,932.17,210.44Zm-3.95,7.15a72.09,72.09,0,0,1-7.12-1.31.73.73,0,0,0-.88.55.72.72,0,0,0,.55.87c2.36.56,4.8,1,7.25,1.34h.1a.73.73,0,0,0,.1-1.46Zm28.86-1.06c-2.4.47-4.81.85-7.17,1.13a.71.71,0,0,0-.63.81.72.72,0,0,0,.72.65h.09c2.39-.29,4.84-.67,7.27-1.15a.72.72,0,0,0,.58-.85A.73.73,0,0,0,957.08,216.53Zm-14.4,1.71c-1.19,0-2.38.07-3.56.07s-2.47,0-3.69-.08a.73.73,0,0,0-.76.7.72.72,0,0,0,.7.76c1.24.06,2.49.08,3.73.08h0c1.19,0,2.41,0,3.62-.06a.74.74,0,0,0-.06-1.47ZM934,225.07a.74.74,0,0,0-.76-.71.71.71,0,0,0-.7.75c0,.65,0,1.3,0,1.94,0,1.78-.08,3.56-.21,5.29a.73.73,0,0,0,.67.79h.06a.74.74,0,0,0,.73-.67c.14-1.77.21-3.59.21-5.41Q934.06,226.06,934,225.07Zm-1.77,13.85a.73.73,0,0,0-.87.57,52,52,0,0,1-1.89,7,.74.74,0,0,0,.46.93.93.93,0,0,0,.23,0,.74.74,0,0,0,.7-.5,57.54,57.54,0,0,0,1.94-7.14A.73.73,0,0,0,932.26,238.92Zm-4.62,13.83a.74.74,0,0,0-1,.3,42.4,42.4,0,0,1-3.84,6.07.72.72,0,0,0,.15,1,.63.63,0,0,0,.43.15A.71.71,0,0,0,924,260a45.25,45.25,0,0,0,4-6.27A.72.72,0,0,0,927.64,252.75ZM919,264.49a.73.73,0,0,0-1,0,43,43,0,0,1-5.65,4.44.72.72,0,0,0-.21,1,.74.74,0,0,0,.61.32.77.77,0,0,0,.41-.11,45.05,45.05,0,0,0,5.84-4.59A.73.73,0,0,0,919,264.49Zm-112.65,7.95c-4.33-1.4-6.84-2.41-6.87-2.42a.73.73,0,1,0-.54,1.36s2.58,1,7,2.45a.85.85,0,0,0,.22,0,.73.73,0,0,0,.23-1.43Zm100.64.27a.74.74,0,0,0-1-.37c-2.16,1-4.41,1.92-6.71,2.75a.73.73,0,0,0,.26,1.42.67.67,0,0,0,.24,0c2.33-.85,4.62-1.79,6.82-2.79A.74.74,0,0,0,907,272.71Zm-86.6,3.66c-2.37-.57-4.74-1.18-7.06-1.83a.73.73,0,1,0-.39,1.4c2.33.66,4.73,1.28,7.11,1.85h.17a.72.72,0,0,0,.17-1.43Zm72.91,1.44a.73.73,0,0,0-.9-.51c-2.29.64-4.66,1.21-7.06,1.7a.73.73,0,0,0,.15,1.45.34.34,0,0,0,.14,0c2.43-.49,4.84-1.07,7.17-1.72A.73.73,0,0,0,893.34,277.81Zm-58.62,1.42c-2.37-.38-4.78-.82-7.17-1.3a.73.73,0,0,0-.86.57.75.75,0,0,0,.57.87c2.41.47,4.84.91,7.23,1.3h.12a.74.74,0,0,0,.72-.62A.72.72,0,0,0,834.72,279.23Zm14.47,1.71c-2.38-.18-4.82-.42-7.25-.71a.73.73,0,0,0-.81.64.72.72,0,0,0,.64.81c2.44.3,4.91.54,7.31.71h0a.73.73,0,0,0,.06-1.45Zm29-.73c-2.35.33-4.78.59-7.23.78a.73.73,0,0,0,.06,1.46h.06c2.47-.2,4.93-.46,7.31-.78a.74.74,0,0,0-.2-1.46Zm-14.49,1.14c-2.42,0-4.84,0-7.27,0a.73.73,0,0,0-.05,1.46c1.42,0,2.85.06,4.24.06,1,0,2.07,0,3.11,0a.72.72,0,0,0,.72-.74A.73.73,0,0,0,863.73,281.35Z"/><path class="cls-2" d="M787.38,414.12c-2.46,0-4.93.15-7.34.32a.73.73,0,0,0,.05,1.46h0c2.38-.17,4.83-.27,7.27-.32a.73.73,0,0,0,.71-.75A.7.7,0,0,0,787.38,414.12Zm14.7.59c-2.41-.29-4.88-.47-7.35-.55a.73.73,0,1,0-.05,1.45c2.43.09,4.86.27,7.23.55H802a.73.73,0,0,0,.09-1.45Zm-29.36.43c-2.44.3-4.88.67-7.26,1.09a.74.74,0,0,0-.59.85.72.72,0,0,0,.72.6h.13c2.35-.42,4.77-.78,7.18-1.08a.73.73,0,1,0-.18-1.45Zm43.78,2.59c-2.32-.72-4.73-1.34-7.15-1.84a.72.72,0,0,0-.86.56.73.73,0,0,0,.57.87c2.37.5,4.73,1.1,7,1.81a.86.86,0,0,0,.22,0,.74.74,0,0,0,.7-.51A.73.73,0,0,0,816.5,417.73Zm-57.35.55a.73.73,0,0,0-.89-.53c-2.39.57-4.77,1.23-7.09,1.95a.73.73,0,0,0,.22,1.43.71.71,0,0,0,.21,0c2.29-.7,4.65-1.35,7-1.92A.74.74,0,0,0,759.15,418.28Zm70.93,5.2a70.12,70.12,0,0,0-6.64-3.22.73.73,0,0,0-.58,1.34,66.31,66.31,0,0,1,6.51,3.16.73.73,0,0,0,.35.09.73.73,0,0,0,.36-1.37Zm-84.92-1a.72.72,0,0,0-.94-.42c-2.3.87-4.58,1.84-6.79,2.85a.74.74,0,0,0-.35,1,.73.73,0,0,0,.66.42.7.7,0,0,0,.31-.07c2.17-1,4.43-1.94,6.69-2.82A.72.72,0,0,0,745.16,422.51Zm97,9.48a63.87,63.87,0,0,0-5.79-4.6.73.73,0,0,0-1,.18.74.74,0,0,0,.18,1,62.33,62.33,0,0,1,5.66,4.49.68.68,0,0,0,.48.19.75.75,0,0,0,.54-.24A.73.73,0,0,0,842.13,432Zm-110.27-3.44a.74.74,0,0,0-1-.28c-2.15,1.18-4.28,2.45-6.32,3.78a.73.73,0,0,0,.4,1.34.65.65,0,0,0,.4-.12c2-1.3,4.1-2.55,6.23-3.72A.75.75,0,0,0,731.86,428.55Zm-12.31,7.89a.75.75,0,0,0-1-.15c-2,1.51-3.88,3.11-5.67,4.72a.73.73,0,0,0-.05,1,.71.71,0,0,0,.54.24.74.74,0,0,0,.49-.18c1.76-1.59,3.64-3.16,5.58-4.64A.73.73,0,0,0,719.55,436.44Zm132.26,6.71a55.55,55.55,0,0,0-4.49-5.89.73.73,0,0,0-1.1,1,55,55,0,0,1,4.37,5.74.72.72,0,0,0,.61.32.76.76,0,0,0,.4-.11A.74.74,0,0,0,851.81,443.15Zm217.38,6a47.69,47.69,0,0,0-7.41.41.72.72,0,0,0-.63.81.74.74,0,0,0,.73.64h.1a48.45,48.45,0,0,1,7.18-.39.73.73,0,1,0,0-1.46Zm-360.56-3a.74.74,0,0,0-1,0A48.12,48.12,0,0,0,702.9,452a.72.72,0,0,0,.22,1,.68.68,0,0,0,.39.11.74.74,0,0,0,.62-.32,46.66,46.66,0,0,1,4.54-5.6A.72.72,0,0,0,708.63,446.16Zm375.08,5.95a40,40,0,0,0-7.13-2.11.73.73,0,0,0-.86.58.72.72,0,0,0,.57.85,39,39,0,0,1,6.87,2,.66.66,0,0,0,.28,0,.73.73,0,0,0,.27-1.41Zm-28.28-.53a.73.73,0,0,0-.91-.5,56,56,0,0,0-7,2.44.74.74,0,0,0-.4,1,.75.75,0,0,0,.68.45.67.67,0,0,0,.28-.06,55.08,55.08,0,0,1,6.81-2.38A.74.74,0,0,0,1055.43,451.58Zm-197.39,5a46.11,46.11,0,0,0-2.61-6.95.73.73,0,1,0-1.32.62,44.63,44.63,0,0,1,2.52,6.73.75.75,0,0,0,.71.53l.2,0A.74.74,0,0,0,858,456.57Zm183.88.52a.74.74,0,0,0-1-.28,69.6,69.6,0,0,0-6.2,4,.73.73,0,0,0-.15,1,.72.72,0,0,0,.58.29.69.69,0,0,0,.43-.14,68.85,68.85,0,0,1,6.07-3.93A.72.72,0,0,0,1041.92,457.09ZM1030,465.53a.73.73,0,0,0-1-.06c-1.8,1.61-3.57,3.35-5.26,5.17a.72.72,0,0,0,0,1,.73.73,0,0,0,.49.2.71.71,0,0,0,.54-.24c1.66-1.78,3.4-3.49,5.16-5.07A.72.72,0,0,0,1030,465.53Zm-170.57-1.67a.71.71,0,0,0-.79-.65.72.72,0,0,0-.66.8c.12,1.24.19,2.48.19,3.71s-.06,2.31-.17,3.44a.75.75,0,0,0,.66.81h.06a.73.73,0,0,0,.73-.67c.11-1.18.17-2.39.17-3.58A38.51,38.51,0,0,0,859.44,463.86ZM1020,476.12a.72.72,0,0,0-1,.12c-1.49,1.9-2.94,3.91-4.32,6a.73.73,0,0,0,.21,1,.74.74,0,0,0,1-.2c1.35-2,2.78-4,4.25-5.89A.73.73,0,0,0,1020,476.12ZM857.5,477.69a.72.72,0,0,0-.92.47,33.65,33.65,0,0,1-2.87,6.54.72.72,0,0,0,.27,1,.77.77,0,0,0,.36.09.73.73,0,0,0,.64-.37,35.42,35.42,0,0,0,3-6.82A.73.73,0,0,0,857.5,477.69Zm154.26,10.52a.72.72,0,0,0-1,.27c-1.19,2.09-2.34,4.28-3.42,6.52a.71.71,0,0,0,.34,1,.68.68,0,0,0,.31.08.72.72,0,0,0,.66-.41c1.07-2.21,2.2-4.37,3.38-6.43A.73.73,0,0,0,1011.76,488.21Zm-161.19,2.23a.75.75,0,0,0-1,.06,40.06,40.06,0,0,1-5.21,4.92.73.73,0,1,0,.91,1.15,41.62,41.62,0,0,0,5.4-5.1A.73.73,0,0,0,850.57,490.44Zm-11.23,9.26a.74.74,0,0,0-1-.28,55.06,55.06,0,0,1-6.5,3.13.73.73,0,0,0-.39,1,.71.71,0,0,0,.95.4,58.81,58.81,0,0,0,6.67-3.22A.73.73,0,0,0,839.34,499.7Zm165.95,1.61a.73.73,0,0,0-.95.4c-.92,2.22-1.8,4.53-2.62,6.86a.73.73,0,0,0,.45.93.69.69,0,0,0,.24.05.78.78,0,0,0,.7-.49c.8-2.31,1.67-4.59,2.58-6.8A.73.73,0,0,0,1005.29,501.31ZM826,505.55a.73.73,0,0,0-1-.38,56.06,56.06,0,0,0-6.62,3.32.74.74,0,0,0-.26,1,.74.74,0,0,0,1,.26,55.39,55.39,0,0,1,6.44-3.24A.74.74,0,0,0,826,505.55Zm-12.67,7.23a.72.72,0,0,0-1-.12,56.11,56.11,0,0,0-5.52,4.94.74.74,0,0,0,0,1,.73.73,0,0,0,.51.21.74.74,0,0,0,.52-.22,53.13,53.13,0,0,1,5.37-4.82A.72.72,0,0,0,813.3,512.78Zm187.07,2.29a.73.73,0,0,0-.9.5c-.68,2.3-1.33,4.68-1.91,7.09a.72.72,0,0,0,.53.88.52.52,0,0,0,.17,0A.74.74,0,0,0,999,523c.58-2.38,1.22-4.74,1.89-7A.73.73,0,0,0,1000.37,515.07Zm-197.39,8a.73.73,0,0,0-1,.14,59.89,59.89,0,0,0-4.05,6.19.73.73,0,0,0,.27,1,.77.77,0,0,0,.36.09.73.73,0,0,0,.64-.36,57,57,0,0,1,4-6A.72.72,0,0,0,803,523.09Zm193.82,6.16a.72.72,0,0,0-.87.55c-.55,2.4-1.13,4.78-1.72,7.08a.72.72,0,0,0,.53.89.52.52,0,0,0,.17,0,.72.72,0,0,0,.71-.55c.6-2.3,1.19-4.7,1.73-7.12A.72.72,0,0,0,996.8,529.25Zm-201.2,6.42a.72.72,0,0,0-1,.4,60.63,60.63,0,0,0-2.43,7,.73.73,0,0,0,.51.9.44.44,0,0,0,.2,0,.73.73,0,0,0,.7-.53,61.69,61.69,0,0,1,2.36-6.82A.72.72,0,0,0,795.6,535.67Zm197.56,7.73a.74.74,0,0,0-.92.49c-.7,2.37-1.45,4.71-2.22,6.94a.74.74,0,0,0,.45.93l.24,0a.73.73,0,0,0,.69-.49c.78-2.25,1.54-4.6,2.25-7A.73.73,0,0,0,993.16,543.4Zm-201.67,6.27a.74.74,0,0,0-.85.61,62.4,62.4,0,0,0-.71,7.35.73.73,0,0,0,.7.76h0a.73.73,0,0,0,.73-.7,63.69,63.69,0,0,1,.7-7.18A.74.74,0,0,0,791.49,549.67Zm197,7.57a.73.73,0,0,0-1,.41c-.91,2.28-1.87,4.53-2.86,6.69a.73.73,0,0,0,.37,1,.66.66,0,0,0,.3.07A.74.74,0,0,0,986,565c1-2.18,2-4.46,2.88-6.77A.73.73,0,0,0,988.44,557.24Zm-195.9,14.82a61.18,61.18,0,0,1-1-7.15.73.73,0,0,0-1.46.12,62,62,0,0,0,1,7.32.74.74,0,0,0,.72.59l.14,0A.73.73,0,0,0,792.54,572.06Zm189.87-1.51a.72.72,0,0,0-1,.3c-1.15,2.16-2.36,4.28-3.6,6.3a.72.72,0,0,0,.62,1.11.71.71,0,0,0,.62-.34c1.27-2,2.49-4.2,3.65-6.38A.72.72,0,0,0,982.41,570.55ZM797.09,585.72A59.87,59.87,0,0,1,794.4,579a.73.73,0,0,0-1.39.46,59.23,59.23,0,0,0,2.77,6.86.71.71,0,0,0,.65.42.88.88,0,0,0,.32-.07A.73.73,0,0,0,797.09,585.72ZM974.82,583a.74.74,0,0,0-1,.17c-1.41,2-2.91,3.9-4.44,5.73a.74.74,0,0,0,.09,1,.72.72,0,0,0,.47.17.73.73,0,0,0,.56-.26C972,588,973.56,586.05,975,584A.72.72,0,0,0,974.82,583Zm-170,14.84A58.62,58.62,0,0,1,800.6,592a.74.74,0,0,0-1.24.79,59.29,59.29,0,0,0,4.37,6,.7.7,0,0,0,.56.26.73.73,0,0,0,.56-1.19Zm160.67-3.59a.73.73,0,0,0-1,0c-1.7,1.72-3.48,3.38-5.29,4.94a.73.73,0,1,0,.95,1.11c1.85-1.59,3.66-3.28,5.38-5A.74.74,0,0,0,965.52,594.27Zm-11,9.6a.75.75,0,0,0-1-.17c-1.93,1.4-4,2.75-6,4a.73.73,0,0,0,.38,1.36.76.76,0,0,0,.38-.11c2.11-1.27,4.17-2.63,6.14-4.06A.73.73,0,0,0,954.53,603.87Zm-139.21,3.89a62,62,0,0,1-5.53-4.64.73.73,0,0,0-1,0,.72.72,0,0,0,0,1,64.78,64.78,0,0,0,5.65,4.75.75.75,0,0,0,.44.15.73.73,0,0,0,.44-1.32Zm126.78,3.76a.73.73,0,0,0-1-.32c-2.12,1.06-4.34,2.06-6.59,3a.73.73,0,0,0,.27,1.41.67.67,0,0,0,.28-.06c2.29-.94,4.54-2,6.7-3A.73.73,0,0,0,942.1,611.52Zm-114.34,3.57a67.06,67.06,0,0,1-6.42-3.34.73.73,0,0,0-.74,1.27,69.75,69.75,0,0,0,6.55,3.4.63.63,0,0,0,.3.07.73.73,0,0,0,.67-.42A.75.75,0,0,0,827.76,615.09Zm100.88,2.08a.73.73,0,0,0-.92-.46c-2.25.74-4.59,1.44-7,2.07a.73.73,0,0,0,.19,1.43l.19,0c2.4-.63,4.77-1.34,7-2.09A.73.73,0,0,0,928.64,617.17Zm-87.24,2.74c-2.36-.61-4.7-1.32-6.93-2.11a.73.73,0,0,0-.49,1.38c2.27.8,4.65,1.52,7.06,2.14l.18,0a.72.72,0,0,0,.7-.55A.71.71,0,0,0,841.4,619.91ZM914.54,621a.72.72,0,0,0-.86-.56c-2.31.47-4.72.9-7.16,1.26a.73.73,0,0,0-.61.83.74.74,0,0,0,.72.63l.12,0c2.45-.37,4.88-.79,7.23-1.27A.73.73,0,0,0,914.54,621Zm-58.87,1.5c-2.43-.27-4.85-.62-7.19-1a.74.74,0,0,0-.26,1.45c2.37.42,4.82.77,7.29,1.05h.08a.73.73,0,0,0,.08-1.46Zm43.64.12c-2.35.25-4.79.45-7.26.61a.73.73,0,0,0,.05,1.46h0c2.48-.15,4.93-.35,7.31-.61a.71.71,0,0,0,.65-.8A.73.73,0,0,0,899.31,622.61Zm-29.1.84c-2.37-.08-4.82-.21-7.29-.37a.74.74,0,0,0-.77.69.73.73,0,0,0,.68.78c2.48.15,4.94.27,7.32.36h0a.73.73,0,0,0,0-1.46Zm14.58.09c-1.91.05-3.85.08-5.81.08H877.5a.74.74,0,0,0,0,1.47H879c1.94,0,3.89,0,5.78-.08a.72.72,0,0,0,.71-.75A.74.74,0,0,0,884.79,623.54Z"/><path class="cls-2" d="M1002.12,569c-2.56-3.69-4.35-5.94-4.36-6a.73.73,0,0,0-1.15.91s1.78,2.23,4.31,5.89a.73.73,0,0,0,.6.32.78.78,0,0,0,.42-.14A.74.74,0,0,0,1002.12,569Zm7.82,12.46c-1.18-2.09-2.45-4.21-3.77-6.31a.73.73,0,1,0-1.23.78c1.3,2.07,2.55,4.19,3.73,6.26a.74.74,0,0,0,.63.37.71.71,0,0,0,.37-.1A.73.73,0,0,0,1009.94,581.48Zm6.56,13.19c-.93-2.18-2-4.43-3.1-6.68a.72.72,0,0,0-1-.33.72.72,0,0,0-.33,1c1.12,2.23,2.14,4.46,3.06,6.61a.74.74,0,0,0,.67.44,1,1,0,0,0,.29,0A.74.74,0,0,0,1016.5,594.67Zm4.68,14c-.53-2.28-1.23-4.67-2-7.09a.73.73,0,1,0-1.38.47c.81,2.38,1.48,4.72,2,7a.73.73,0,0,0,.72.55h.16A.74.74,0,0,0,1021.18,608.64Zm-5.15,4.12a27,27,0,0,0-7.18,2.12.73.73,0,0,0,.3,1.4.75.75,0,0,0,.29-.06,25.38,25.38,0,0,1,6.8-2,.74.74,0,0,0,.62-.83A.73.73,0,0,0,1016,612.76Zm14.64,2.32a26.66,26.66,0,0,0-7.14-2.26.73.73,0,0,0-.24,1.45,25,25,0,0,1,6.76,2.13.7.7,0,0,0,.31.07.73.73,0,0,0,.66-.42A.72.72,0,0,0,1030.67,615.08Zm-8.21.85a.72.72,0,0,0-.81-.64.75.75,0,0,0-.65.81,44.43,44.43,0,0,1,.29,4.94c0,.75,0,1.51-.07,2.24a.74.74,0,0,0,.69.77h0a.73.73,0,0,0,.73-.69c0-.76.06-1.54.06-2.32A47.41,47.41,0,0,0,1022.46,615.93Zm-19,2.91a.72.72,0,0,0-1-.15,40.74,40.74,0,0,0-5.51,5,.73.73,0,0,0,0,1,.74.74,0,0,0,.5.2.77.77,0,0,0,.54-.24,39.8,39.8,0,0,1,5.32-4.81A.72.72,0,0,0,1003.45,618.84Zm39.28,4.84a40.23,40.23,0,0,0-5.67-4.81.73.73,0,0,0-1,.17.72.72,0,0,0,.17,1,39.2,39.2,0,0,1,5.46,4.64.74.74,0,0,0,1,0A.72.72,0,0,0,1042.73,623.68Zm-49.39,5.63a.73.73,0,0,0-1,.2,42.35,42.35,0,0,0-3.59,6.52.73.73,0,0,0,.38,1,.61.61,0,0,0,.29.06.73.73,0,0,0,.67-.44,41.52,41.52,0,0,1,3.46-6.29A.74.74,0,0,0,993.34,629.31Zm57,7.08a30.65,30.65,0,0,0-3-6.82.75.75,0,0,0-1-.25.72.72,0,0,0-.24,1,29.26,29.26,0,0,1,2.9,6.49.73.73,0,0,0,.7.52.76.76,0,0,0,.21,0A.74.74,0,0,0,1050.36,636.39ZM1021,629.82a.74.74,0,0,0-.91.51,28.15,28.15,0,0,1-2.74,6.55.73.73,0,0,0,.63,1.1.75.75,0,0,0,.64-.36,29.84,29.84,0,0,0,2.88-6.9A.72.72,0,0,0,1021,629.82Zm-6.94,12.69a.73.73,0,0,0-1,0,32.72,32.72,0,0,1-5.56,4.48.74.74,0,0,0-.22,1,.73.73,0,0,0,1,.22,35.21,35.21,0,0,0,5.8-4.68A.74.74,0,0,0,1014.05,642.51Zm-25.33,7.55a8,8,0,0,1-.94-4.12,15.37,15.37,0,0,1,.22-2.53.73.73,0,0,0-.61-.83.72.72,0,0,0-.84.61,18,18,0,0,0-.23,2.75,9.55,9.55,0,0,0,1.13,4.86.76.76,0,0,0,.64.37.75.75,0,0,0,.37-.11A.73.73,0,0,0,988.72,650.06Zm63-6.32a.71.71,0,0,0-.77-.68.74.74,0,0,0-.69.78c0,.78.08,1.58.08,2.38A41.39,41.39,0,0,1,1050,651a.71.71,0,0,0,.63.81h.09a.75.75,0,0,0,.73-.64,42.33,42.33,0,0,0,.31-5C1051.78,645.39,1051.75,644.55,1051.69,643.74Zm-49.6,7a.73.73,0,0,0-1-.37,21.62,21.62,0,0,1-6.75,2,.73.73,0,0,0,.06,1.46h.06a23.38,23.38,0,0,0,7.23-2.09A.74.74,0,0,0,1002.09,650.79Zm47.39,6.76a.73.73,0,0,0-.9.5,59.12,59.12,0,0,1-2.38,6.83.73.73,0,0,0,.68,1,.74.74,0,0,0,.67-.45,59.4,59.4,0,0,0,2.44-7A.73.73,0,0,0,1049.48,657.55ZM1044,671.1a.74.74,0,0,0-1,.29c-1.33,2.41-2.33,3.85-2.33,3.86a.73.73,0,0,0,.18,1,.69.69,0,0,0,.41.13.74.74,0,0,0,.6-.31,46.23,46.23,0,0,0,2.42-4A.73.73,0,0,0,1044,671.1Z"/><path class="cls-2" d="M1091.3,218.22c-2.42-.08-4.91,0-7.38.12a.73.73,0,0,0,0,1.45h0c2.42-.14,4.86-.18,7.24-.11a.73.73,0,0,0,.75-.71A.72.72,0,0,0,1091.3,218.22Zm14.61,1.79c-2.38-.52-4.83-.94-7.26-1.23a.73.73,0,0,0-.82.63.75.75,0,0,0,.64.82c2.38.29,4.79.7,7.13,1.21l.16,0a.73.73,0,0,0,.15-1.45Zm14,4.49c-2.26-1-4.59-1.83-6.91-2.57a.72.72,0,0,0-.92.47.74.74,0,0,0,.47.92c2.29.73,4.56,1.58,6.79,2.53a.67.67,0,0,0,.28.06.73.73,0,0,0,.29-1.41Zm13,7c-2.05-1.36-4.18-2.63-6.33-3.79a.73.73,0,0,0-.69,1.29c2.11,1.14,4.2,2.39,6.22,3.72a.72.72,0,0,0,.4.12.71.71,0,0,0,.61-.33A.72.72,0,0,0,1132.92,231.49Zm11.55,9.15c-1.79-1.68-3.66-3.3-5.57-4.82A.73.73,0,1,0,1138,237c1.89,1.5,3.73,3.09,5.49,4.74a.69.69,0,0,0,.5.2.68.68,0,0,0,.53-.23A.72.72,0,0,0,1144.47,240.64Zm9.83,11c-1.47-2-3-3.87-4.68-5.7a.73.73,0,0,0-1,0,.75.75,0,0,0-.06,1c1.62,1.8,3.17,3.68,4.62,5.6a.71.71,0,0,0,.58.29.82.82,0,0,0,.44-.14A.74.74,0,0,0,1154.3,251.62Zm7.81,12.5c-1.1-2.17-2.32-4.33-3.62-6.42a.73.73,0,0,0-1-.23.72.72,0,0,0-.23,1c1.29,2.06,2.49,4.18,3.57,6.31a.72.72,0,0,0,.65.4.78.78,0,0,0,.33-.07A.74.74,0,0,0,1162.11,264.12Zm-25.67,12.25a9.81,9.81,0,0,0-6.91-3.32.71.71,0,0,0-.78.69.74.74,0,0,0,.69.77,8.36,8.36,0,0,1,5.91,2.84.75.75,0,0,0,.54.24.69.69,0,0,0,.49-.19A.72.72,0,0,0,1136.44,276.37Zm31,1.52a68.52,68.52,0,0,0-2.3-7,.73.73,0,0,0-1.36.53,67.24,67.24,0,0,1,2.25,6.88.73.73,0,0,0,.7.54l.19,0A.74.74,0,0,0,1167.42,277.89Zm-44.33-2.82a.72.72,0,0,0-1-.34,27.32,27.32,0,0,0-6.2,4.21.73.73,0,0,0-.07,1,.75.75,0,0,0,.55.24.76.76,0,0,0,.49-.18,25.5,25.5,0,0,1,5.86-4A.73.73,0,0,0,1123.09,275.07Zm16.82,8a.73.73,0,0,0-1.41.4,33.29,33.29,0,0,1,1.11,7.06.73.73,0,0,0,.73.68h.05a.72.72,0,0,0,.68-.77A35.59,35.59,0,0,0,1139.91,283.1Zm-28,1.19a.73.73,0,0,0-1,.15,40.11,40.11,0,0,0-3.88,6.35.75.75,0,0,0,.35,1,.68.68,0,0,0,.32.07.74.74,0,0,0,.65-.42,38.25,38.25,0,0,1,3.73-6.11A.74.74,0,0,0,1111.91,284.29Zm57,.86a.73.73,0,1,0-1.45.19,46,46,0,0,1,.42,6.11c0,.35,0,.71,0,1.07a.74.74,0,0,0,.72.75h0a.74.74,0,0,0,.73-.71c0-.37,0-.74,0-1.11A48.77,48.77,0,0,0,1168.87,285.15Zm-28.51,11.94a.71.71,0,0,0-.77.69c-.13,2.25-.37,4.68-.71,7.21a.73.73,0,0,0,.62.83h.1a.75.75,0,0,0,.73-.63c.35-2.59.59-5.05.73-7.34A.74.74,0,0,0,1140.36,297.09Zm-35,.17a.72.72,0,0,0-.88.53,31.65,31.65,0,0,0-1,7.4.73.73,0,0,0,.72.74h0a.75.75,0,0,0,.74-.72,30.93,30.93,0,0,1,.94-7.06A.72.72,0,0,0,1105.33,297.26Zm62.51,1.81a.74.74,0,0,0-.88.55c-.16.72-.35,1.45-.56,2.14-.49,1.61-1,3.2-1.59,4.75a.73.73,0,0,0,.43.94.77.77,0,0,0,.25,0,.74.74,0,0,0,.69-.47c.58-1.57,1.12-3.2,1.62-4.84.22-.72.42-1.48.59-2.23A.74.74,0,0,0,1167.84,299.07Zm-59.4,19.75a26.39,26.39,0,0,1-2.7-6.57.72.72,0,0,0-.88-.52.73.73,0,0,0-.53.89,27.8,27.8,0,0,0,2.84,6.93.73.73,0,0,0,1.27-.73Zm30.09-7.23a.73.73,0,0,0-.87.57c-.47,2.32-1,4.7-1.66,7.07a.74.74,0,0,0,.53.9l.18,0a.74.74,0,0,0,.71-.56c.64-2.39,1.2-4.8,1.68-7.15A.74.74,0,0,0,1138.53,311.59Zm24.44,1.25a.73.73,0,0,0-1,.34,69.54,69.54,0,0,1-3.45,6.36.73.73,0,0,0,.23,1,.78.78,0,0,0,.39.1.74.74,0,0,0,.62-.34,72.68,72.68,0,0,0,3.53-6.49A.73.73,0,0,0,1163,312.84Zm-45.44,17.08a48.18,48.18,0,0,1-4.92-5.25.74.74,0,0,0-1-.1.73.73,0,0,0-.1,1,48.26,48.26,0,0,0,5.08,5.4.69.69,0,0,0,.49.2.75.75,0,0,0,.55-.24A.74.74,0,0,0,1117.53,329.92Zm37.88-4.59a.73.73,0,0,0-1,.1,42.4,42.4,0,0,1-5,5.17.73.73,0,0,0-.07,1,.72.72,0,0,0,.55.26.74.74,0,0,0,.48-.18,43.25,43.25,0,0,0,5.15-5.36A.73.73,0,0,0,1155.41,325.33Zm-20.54.41a.74.74,0,0,0-.93.47c-.73,2.25-1.54,4.56-2.41,6.87a.72.72,0,0,0,.43.94.72.72,0,0,0,.94-.42c.88-2.33,1.7-4.67,2.44-6.94A.74.74,0,0,0,1134.87,325.74Zm-5,10.95a22.9,22.9,0,0,1-6.58-2.55.73.73,0,0,0-.72,1.27,24.63,24.63,0,0,0,7,2.72h.15a.73.73,0,0,0,.15-1.45Zm14.66-1.74a.73.73,0,0,0-1-.31,21.89,21.89,0,0,1-6.67,2.24.73.73,0,0,0,.11,1.45h.12a23.26,23.26,0,0,0,7.12-2.38A.73.73,0,0,0,1144.52,335Zm-14.76,4.49a.74.74,0,0,0-1,.39c-.94,2.2-2,4.44-3,6.65a.74.74,0,0,0,.35,1,.87.87,0,0,0,.32.06.72.72,0,0,0,.65-.41c1.07-2.23,2.09-4.49,3-6.71A.72.72,0,0,0,1129.76,339.44Zm-6.25,13.26a.73.73,0,0,0-1,.31c-1.11,2.12-2.29,4.27-3.49,6.4a.73.73,0,0,0,.28,1,.67.67,0,0,0,.36.09.74.74,0,0,0,.64-.37c1.2-2.14,2.39-4.31,3.5-6.45A.73.73,0,0,0,1123.51,352.7Zm-7.16,12.75a.73.73,0,0,0-1,.25c-1.24,2-2.54,4.13-3.87,6.19a.74.74,0,0,0,.21,1,.75.75,0,0,0,.41.12.75.75,0,0,0,.61-.34c1.33-2.07,2.64-4.17,3.89-6.22A.74.74,0,0,0,1116.35,365.45Zm-7.89,12.34a.73.73,0,0,0-1,.18q-2,3-4.19,6a.73.73,0,0,0,.17,1,.75.75,0,0,0,.43.13.71.71,0,0,0,.59-.3c1.43-2,2.85-4,4.21-6A.73.73,0,0,0,1108.46,377.79ZM1100,389.7a.74.74,0,0,0-1,.14c-1.45,1.93-3,3.88-4.46,5.79a.74.74,0,0,0,.58,1.19.77.77,0,0,0,.58-.28c1.51-1.93,3-3.88,4.48-5.82A.74.74,0,0,0,1100,389.7Zm-9,11.53a.73.73,0,0,0-1,.1c-1.53,1.87-3.11,3.75-4.69,5.6a.74.74,0,0,0,.08,1,.68.68,0,0,0,.47.17.69.69,0,0,0,.55-.26c1.6-1.86,3.18-3.75,4.72-5.62A.74.74,0,0,0,1090.92,401.23Zm-9.5,11.16a.72.72,0,0,0-1,.06c-1.61,1.81-3.26,3.63-4.91,5.43a.72.72,0,0,0,.54,1.22.75.75,0,0,0,.54-.24c1.66-1.8,3.31-3.63,4.92-5.44A.72.72,0,0,0,1081.42,412.39Zm-9.9,10.8a.73.73,0,0,0-1,0c-1.71,1.78-3.42,3.55-5.1,5.24a.73.73,0,0,0,.51,1.25.74.74,0,0,0,.52-.22c1.7-1.7,3.41-3.47,5.12-5.26A.72.72,0,0,0,1071.52,423.19ZM1061.2,433.6a.72.72,0,0,0-1,0c-3.32,3.2-5.33,5-5.36,5a.73.73,0,0,0,.5,1.28.74.74,0,0,0,.48-.18s2-1.83,5.39-5.05A.72.72,0,0,0,1061.2,433.6Z"/><path class="cls-5" d="M526.62,647.15s18.68-35.39,41.43-41,56.3,5,42.67,10.9c-7,3-14.44,2.83-20.59,4.51A39.22,39.22,0,0,0,578,627.07s28.24-4.68,29.19,3.55c.79,6.8-29.62,16-29.62,16s34.81-5.89,28.91,3-28.67,13.82-28.67,13.82,46.77-.7,39.67,9.44-38.65.33-41.56,10.65-2.36,46.43-32,41.86Z"/><path class="cls-6" d="M670.63,1200H508.57c-4.53-41.39-7.49-77.3-9.4-107.63l-.06-1a45.49,45.49,0,0,1,.4-8.82c.08-.55.18-1.1.29-1.63a26.63,26.63,0,0,1,11.48-17.73c22.8-15.4,72.91-3.26,110.18,9.3,11,3.7,20.86,7.43,28.59,10.51,10.25,4.08,16.73,7,17.06,7.15h0l2,77Z"/><path class="cls-6" d="M822.13,1200H659.81c-4.61-42.71-7.53-79.47-9.36-110.18q-.21-3.45-.4-6.8c-.19-3.47-.37-6.87-.54-10.18-.74-14.58-1.21-27.56-1.5-38.92-1-39.28.12-59.24.12-59.24l135.82,30,32.68,7.23.31,11.63,1.37,51.71.45,16.67.35,13.34v0l1.75,66Z"/><path class="cls-2" d="M747.25,1151.48c-.35.24-32.63,21.81-45.66,48.52H699.3c13-27.68,46.44-50,46.81-50.25Z"/><path class="cls-7" d="M677.92,646.56l-10.66-31.93-3.1-9.3-18.24-54.67L643.52,605l-1.43,32.64L641.63,648c-.3,7-4.91,8.49-10.51,14.59-2.27,2.47-16.8,17.44-.31,24.2,20.54,8.43,58.93-4.33,73.53-21C704.22,665.73,681.36,656.89,677.92,646.56Z"/><ellipse class="cls-7" cx="648.71" cy="571.07" rx="58.7" ry="52.21" transform="translate(-46.71 1084.23) rotate(-77.78)"/><path class="cls-2" d="M619.25,550.66c-29.92,1-44.42-15-44.77-29.82C574,501.81,586.94,485,602,492s8.57-10.28,23-12.12c27-3.44,32.07,14.39,54.16,15.26,29.15,1.14,62.37,46.24,38,79.15C717.1,574.32,642.87,549.84,619.25,550.66Z"/><path class="cls-2" d="M592.61,531.47s32,28.58,27.75,44.66-3.15,22.37,15.51,31,2.19,22.5,27.06,23.51,55.36-26.3,55.35-71.17A64.82,64.82,0,0,0,702.8,518Z"/><path class="cls-7" d="M604.22,575.41c3.62-4.77,10.28-6.2,14.87-3.19s5.38,9.31,1.76,14.08-10.28,6.2-14.87,3.2S600.6,580.19,604.22,575.41Z"/><path class="cls-2" d="M729.09,586.7a.74.74,0,0,1-.72-.57c-1.45-6-7.66-9.51-7.73-9.54a.74.74,0,0,1-.29-1,.73.73,0,0,1,1-.3c.28.16,6.86,3.82,8.46,10.5a.75.75,0,0,1-.55.9Z"/><path class="cls-2" d="M721,573.2a.75.75,0,0,1,0-1.49c.08,0,8.17-.55,9.33-6.34a.74.74,0,0,1,.87-.59.76.76,0,0,1,.59.88c-1.39,6.92-10.33,7.51-10.71,7.54Z"/><path class="cls-2" d="M606.5,490.91a5.68,5.68,0,0,1-1.6-.23,21.39,21.39,0,0,1-6.13-3c-3.33-2.15-6.21-4-12.47-2.13a.74.74,0,1,1-.43-1.42c6.92-2.07,10.37.15,13.7,2.3a20.39,20.39,0,0,0,5.72,2.84,3.66,3.66,0,0,0,3.24-.47c3.27-2.23,4-9.31,4.05-9.38a.74.74,0,1,1,1.47.15c0,.32-.85,7.84-4.68,10.46A5,5,0,0,1,606.5,490.91Z"/><path class="cls-2" d="M676.87,492.83c-10.57,0-18.79-7.12-19.17-7.45a.74.74,0,0,1,1-1.12c.1.09,9.91,8.56,21.36,6.85a.74.74,0,1,1,.22,1.47A23.15,23.15,0,0,1,676.87,492.83Z"/><path class="cls-2" d="M612.22,591.59a8.13,8.13,0,0,1-2.06-.25.36.36,0,0,1-.23-.45.35.35,0,0,1,.45-.23c.28.08,6.77,2,11.36-6.49a.36.36,0,0,1,.63.34C619.09,590.58,614.74,591.59,612.22,591.59Z"/><path class="cls-2" d="M499.16,1092.37s217-11.85,320,13l1.53-29.36-144.38-42.75L559.7,1036.1l-35.81,7.64-25.27,39Z"/><path class="cls-8" d="M799.85,734.83s-19.1-82.12-135.92-82.11c-203.58,0-146.48,166-165.31,430,0,0,131.25-28.45,321.18,9.41,0,0,18.48-143-5.4-263.83C808.09,796.43,809.23,762.58,799.85,734.83Z"/><path class="cls-8" d="M640.49,652.71s-65.31.95-113.87,46.79-111.11,109-124.38,145.29c-16.33,44.73,13.74,89.61,51.94,90.57s72.44-26.74,72.44-26.74Z"/><path class="cls-8" d="M532.5,637.46S405.48,778.75,399.75,859c-4.7,65.89,170-85.94,183.34-116.5s-6.91-70.59-6.91-70.59Z"/><path class="cls-8" d="M929.72,894.3C910.62,753,749.67,673.16,749.67,673.16L715.34,850.42l67,21.27C816.85,882.63,831,924,810.07,953.5c-26.7,37.69-42.29,88.23-14.73,78.93C842.45,1016.52,939.26,956.36,929.72,894.3Z"/><path class="cls-2" d="M439.54,834.46l-1.28-.65c.69-1.35,69.37-135.46,136.18-166l.59,1.31C508.68,699.44,440.22,833.12,439.54,834.46Z"/><path class="cls-2" d="M825.84,1027.77l-1.43-.08c5.66-103.55-12.66-209.56-12.85-210.62l1.41-.24C813.16,817.89,831.51,924.06,825.84,1027.77Z"/><path class="cls-2" d="M504,923.52l-.73-1.24c38.37-22.63,88.31-82.27,88.81-82.87l1.1.92C592.66,840.93,542.56,900.75,504,923.52Z"/><path class="cls-9" d="M795.68,384.73a4.58,4.58,0,1,1,4.57,4.58A4.58,4.58,0,0,1,795.68,384.73Z"/><path class="cls-9" d="M643.36,232.41a4.58,4.58,0,1,1,4.57,4.58A4.58,4.58,0,0,1,643.36,232.41Z"/><path class="cls-9" d="M437.68,359.72a4.58,4.58,0,1,1,4.58,4.58A4.58,4.58,0,0,1,437.68,359.72Z"/><path class="cls-9" d="M535.26,492.7a4.58,4.58,0,1,1,4.58,4.58A4.58,4.58,0,0,1,535.26,492.7Z"/><path class="cls-9" d="M661.76,413.53a4.58,4.58,0,1,1,4.58,4.58A4.58,4.58,0,0,1,661.76,413.53Z"/><path class="cls-9" d="M692.8,460.86a4.58,4.58,0,1,1,4.58,4.57A4.58,4.58,0,0,1,692.8,460.86Z"/><path class="cls-9" d="M277.66,442.78a4.58,4.58,0,1,1,4.58,4.57A4.58,4.58,0,0,1,277.66,442.78Z"/><path class="cls-9" d="M1076,463.42a.68.68,0,0,1-.46-.19.65.65,0,0,1,0-.92c4.38-4.57,12.84-5.45,15.54-5.61-2.26-7.35-10.67-12.95-10.76-13a.65.65,0,1,1,.72-1.09c.38.25,9.52,6.34,11.52,14.56a.64.64,0,0,1-.11.55.69.69,0,0,1-.51.26c-.11,0-10.69.27-15.45,5.24A.64.64,0,0,1,1076,463.42Z"/><path class="cls-9" d="M1084.13,229.54a.68.68,0,0,1-.31-.08c-.41-.23-10-5.53-12.7-13.56a.66.66,0,0,1,.56-.86c.1,0,10.62-1.16,15-6.5a.65.65,0,0,1,.92-.1.66.66,0,0,1,.1.92c-4,4.91-12.34,6.49-15,6.88,2.86,7.13,11.71,12,11.8,12.07a.66.66,0,0,1-.31,1.23Z"/><path class="cls-9" d="M799.24,278.86a.64.64,0,0,1-.35-.1c-.39-.25-9.63-6.19-11.76-14.38a.64.64,0,0,1,.11-.55.67.67,0,0,1,.5-.27c.11,0,10.68-.44,15.37-5.49a.65.65,0,0,1,1,.89c-4.31,4.64-12.75,5.65-15.45,5.86,2.38,7.3,10.88,12.78,11,12.83a.67.67,0,0,1,.2.91A.66.66,0,0,1,799.24,278.86Z"/><path class="cls-9" d="M228.9,215.79a.66.66,0,0,1-.64-.51c-1.33-6.19,2.69-13.68,4.06-16-7.34-2.25-16.7,1.58-16.8,1.62a.65.65,0,0,1-.5-1.21c.43-.18,10.59-4.33,18.52-1.38a.66.66,0,0,1,.39.41.69.69,0,0,1-.07.56c-.06.09-5.77,9-4.32,15.73a.65.65,0,0,1-.5.78Z"/><path class="cls-9" d="M140,549.52a.65.65,0,0,1-.65-.58c0-.1-1.25-10.14-6.79-15.45-1.36,2.33-5.94,9.5-12,11.36a.67.67,0,0,1-.82-.44.65.65,0,0,1,.44-.81c6.58-2,11.57-11.36,11.62-11.45a.67.67,0,0,1,.46-.34.63.63,0,0,1,.54.14c6.45,5.48,7.78,16.38,7.84,16.84a.67.67,0,0,1-.58.73Z"/><path class="cls-9" d="M266.89,701.92a.58.58,0,0,1-.33-.1.65.65,0,0,1-.23-.89c.06-.09,5.22-8.79,4.08-16.38-2.51,1-10.51,3.88-16.43,1.66a.65.65,0,0,1,.45-1.23c6.46,2.43,16.11-1.91,16.21-2a.66.66,0,0,1,.91.46c1.75,8.28-3.86,17.71-4.1,18.11A.63.63,0,0,1,266.89,701.92Z"/></svg>