<svg id="Layer_1" data-name="Layer 1" xmlns="http://www.w3.org/2000/svg" xmlns:xlink="http://www.w3.org/1999/xlink" viewBox="0 0 595.28 784.37"><defs><style>.cls-1{fill:url(#linear-gradient);}.cls-2{fill:url(#linear-gradient-2);}.cls-3{fill:url(#linear-gradient-3);}.cls-4,.cls-7{fill:#3c3c3b;}.cls-5{fill:#c6c6c5;}.cls-6,.cls-7,.cls-8{font-size:17.7px;}.cls-6{fill:#1d1d1b;font-family:Montserrat-Bold, Montserrat;font-weight:700;}.cls-7{font-family:Montserrat-SemiBold, Montserrat;font-weight:600;}.cls-8{fill:#fff;font-family:Montserrat-ExtraBold, Montserrat;font-weight:800;}</style><linearGradient id="linear-gradient" x1="0.4" y1="21.97" x2="132.57" y2="21.97" gradientUnits="userSpaceOnUse"><stop offset="0.55" stop-color="#e3821e"/><stop offset="1" stop-color="#e3821e"/></linearGradient><linearGradient id="linear-gradient-2" x1="2173.34" y1="-2080.6" x2="2536.71" y2="-2080.6" gradientTransform="translate(-2332.66 2310.45)" xlink:href="#linear-gradient"/><linearGradient id="linear-gradient-3" x1="1800.5" y1="-2080.6" x2="2169.89" y2="-2080.6" gradientTransform="translate(-1962.82 2680.28)" xlink:href="#linear-gradient"/></defs><rect class="cls-1" x="0.4" width="132.17" height="43.94"/><rect class="cls-2" x="-159.31" y="207.87" width="363.37" height="43.94" transform="translate(-207.47 252.22) rotate(-90)"/><rect class="cls-3" x="-162.32" y="577.71" width="369.38" height="43.94" transform="translate(-577.31 622.05) rotate(-90)"/><rect class="cls-4" x="138.65" width="456.22" height="43.94"/><rect class="cls-5" x="47.77" y="48.16" width="547.11" height="54.15"/><text class="cls-6" transform="translate(69.15 69.85)">8h30<tspan x="0.2" y="21.24">9h30</tspan></text><text class="cls-6" transform="translate(202.63 80.47)">Acceuil</text><rect class="cls-5" x="47.77" y="256.04" width="547.11" height="54.15"/><text class="cls-6" transform="translate(64.74 277.72)">10h00<tspan x="0.65" y="21.24">10h45</tspan></text><text class="cls-6" transform="translate(202.63 288.34)">Session 1</text><rect class="cls-5" x="47.77" y="315.07" width="547.11" height="54.15"/><text class="cls-6" transform="translate(64.74 336.76)">10h00<tspan x="0.65" y="21.24">10h45</tspan></text><text class="cls-6" transform="translate(202.63 347.38)">Session 1</text><rect class="cls-5" x="47.77" y="107.2" width="547.11" height="143.96"/><text class="cls-6" transform="translate(69.35 173.79)">9h30<tspan x="-4.61" y="21.24">10h00</tspan></text><text class="cls-6" transform="translate(202.63 151.41)">Allocutions douvertures</text><text class="cls-7" transform="translate(209.98 169.18)">• Président / Vice-président de l’UCA<tspan x="0" y="21.24">• Doyen de la FST Marrakech</tspan><tspan x="0" y="42.48">• Directeur de la cité d’innovation</tspan><tspan x="0" y="63.72">• Président comité d’organisation</tspan></text><rect class="cls-5" x="47.77" y="522.35" width="547.11" height="54.15"/><text class="cls-6" transform="translate(64.74 544.03)">10h00<tspan x="0.65" y="21.24">10h45</tspan></text><text class="cls-6" transform="translate(202.63 554.65)">Session 1</text><rect class="cls-5" x="47.77" y="581.38" width="547.11" height="54.15"/><text class="cls-6" transform="translate(64.74 603.06)">10h00<tspan x="0.65" y="21.24">10h45</tspan></text><text class="cls-6" transform="translate(202.63 613.68)">Session 1</text><rect class="cls-5" x="47.77" y="373.5" width="547.11" height="143.96"/><text class="cls-6" transform="translate(69.35 440.09)">9h30<tspan x="-4.61" y="21.24">10h00</tspan></text><text class="cls-6" transform="translate(202.63 417.72)">Allocutions douvertures</text><text class="cls-7" transform="translate(209.98 435.49)">• Président / Vice-président de l’UCA<tspan x="0" y="21.24">• Doyen de la FST Marrakech</tspan><tspan x="0" y="42.48">• Directeur de la cité d’innovation</tspan><tspan x="0" y="63.72">• Président comité d’organisation</tspan></text><rect class="cls-5" x="47.77" y="640.41" width="547.11" height="143.96"/><text class="cls-6" transform="translate(69.35 707)">9h30<tspan x="-4.61" y="21.24">10h00</tspan></text><text class="cls-6" transform="translate(202.63 684.63)">Allocutions douvertures</text><text class="cls-7" transform="translate(209.98 702.4)">• Président / Vice-président de l’UCA<tspan x="0" y="21.24">• Doyen de la FST Marrakech</tspan><tspan x="0" y="42.48">• Directeur de la cité d’innovation</tspan><tspan x="0" y="63.72">• Président comité d’organisation</tspan></text><text class="cls-8" transform="translate(27.14 28.37)">Horaires</text><text class="cls-8" transform="translate(27.6 268.15) rotate(-90)">Matinée</text><text class="cls-8" transform="translate(27.6 651.44) rotate(-90)">Aprés-midi</text><text class="cls-8" transform="translate(202.47 28.37)">Thèmes</text></svg>