<svg xmlns="http://www.w3.org/2000/svg" xmlns:xlink="http://www.w3.org/1999/xlink" viewBox="0 0 1080 1352.61"><defs><style>.cls-1{font-size:19.58px;}.cls-1,.cls-3{fill:#e2811d;}.cls-1,.cls-12{font-family:Montserrat-Bold, Montserrat;font-weight:700;}.cls-2{letter-spacing:0em;}.cls-3{font-size:15.14px;}.cls-3,.cls-35{font-family:Montserrat-SemiBold, Montserrat;font-weight:600;}.cls-4{letter-spacing:0em;}.cls-5{fill:url(#Degradado_sin_nombre_75);}.cls-6{fill:url(#Degradado_sin_nombre_38);}.cls-7{fill:url(#Degradado_sin_nombre_111);}.cls-8{fill:url(#Degradado_sin_nombre_15);}.cls-9{fill:url(#Degradado_sin_nombre_118);}.cls-10{fill:url(#Degradado_sin_nombre_75-2);}.cls-11,.cls-35{fill:#fff;}.cls-12{font-size:23.5px;fill:#4b6584;}.cls-13{fill:url(#Degradado_sin_nombre_75-3);}.cls-14{fill:url(#Degradado_sin_nombre_75-4);}.cls-15{fill:url(#Degradado_sin_nombre_38-2);}.cls-16{fill:url(#Degradado_sin_nombre_38-3);}.cls-17{fill:url(#Degradado_sin_nombre_38-4);}.cls-18{fill:url(#Degradado_sin_nombre_111-2);}.cls-19{fill:url(#Degradado_sin_nombre_111-3);}.cls-20{fill:url(#Degradado_sin_nombre_111-4);}.cls-21{fill:url(#Degradado_sin_nombre_15-2);}.cls-22{fill:url(#Degradado_sin_nombre_15-3);}.cls-23{fill:url(#Degradado_sin_nombre_15-4);}.cls-24{fill:url(#Degradado_sin_nombre_118-2);}.cls-25{fill:url(#Degradado_sin_nombre_118-3);}.cls-26{fill:url(#Degradado_sin_nombre_118-4);}.cls-27{fill:url(#linear-gradient);}.cls-28{fill:url(#linear-gradient-2);}.cls-29{fill:url(#linear-gradient-3);}.cls-30{fill:url(#linear-gradient-4);}.cls-31{fill:url(#linear-gradient-5);}.cls-32{fill:url(#linear-gradient-6);}.cls-33{fill:url(#linear-gradient-7);}.cls-34{fill:url(#linear-gradient-8);}.cls-35{font-size:16.55px;}.cls-36{letter-spacing:0em;}.cls-37{letter-spacing:-0.01em;}.cls-38{letter-spacing:0em;}.cls-39{letter-spacing:-0.01em;}.cls-40{letter-spacing:0em;}.cls-41{letter-spacing:0.01em;}.cls-42{letter-spacing:-0.01em;}.cls-43{letter-spacing:-0.01em;}.cls-44{letter-spacing:0em;}.cls-45{letter-spacing:-0.02em;}.cls-46{letter-spacing:-0.01em;}.cls-47{letter-spacing:-0.05em;}.cls-48{letter-spacing:-0.02em;}.cls-49{letter-spacing:-0.02em;}.cls-50{letter-spacing:-0.02em;}.cls-51{letter-spacing:-0.01em;}.cls-52{letter-spacing:0em;}.cls-53{letter-spacing:-0.05em;}.cls-54{letter-spacing:-0.01em;}.cls-55{letter-spacing:0em;}.cls-56{letter-spacing:0.01em;}.cls-57{letter-spacing:0.01em;}.cls-58{letter-spacing:-0.01em;}.cls-59{letter-spacing:-0.02em;}.cls-60{fill:none;stroke:#fff;stroke-miterlimit:10;stroke-width:2px;stroke-dasharray:11.98 11.98;}</style><linearGradient id="Degradado_sin_nombre_75" x1="-3871.19" y1="-3126.04" x2="-3709.69" y2="-2991.34" gradientTransform="translate(-2475.75 3921.37) rotate(90)" gradientUnits="userSpaceOnUse"><stop offset="0" stop-color="#ffd678"/><stop offset="1" stop-color="#f58132"/></linearGradient><linearGradient id="Degradado_sin_nombre_38" x1="-3665.55" y1="-3130.36" x2="-3561.77" y2="-2994.28" gradientTransform="translate(4174.07 3366.51)" gradientUnits="userSpaceOnUse"><stop offset="0" stop-color="#ffd678"/><stop offset="1" stop-color="#dc3da8"/></linearGradient><linearGradient id="Degradado_sin_nombre_111" x1="-3471.17" y1="-3093.75" x2="-3352.97" y2="-2967.99" gradientTransform="translate(3999.42 3541.16)" gradientUnits="userSpaceOnUse"><stop offset="0" stop-color="#00ff8c"/><stop offset="1" stop-color="#0066e0"/></linearGradient><linearGradient id="Degradado_sin_nombre_15" x1="-3307.28" y1="-3128.85" x2="-3190.45" y2="-2953.6" gradientTransform="translate(3824.76 3715.82)" gradientUnits="userSpaceOnUse"><stop offset="0" stop-color="#005bea"/><stop offset="1" stop-color="#009efd"/></linearGradient><linearGradient id="Degradado_sin_nombre_118" x1="-2798.22" y1="-3168.01" x2="-2686.2" y2="-2973.52" gradientTransform="translate(-2475.75 3921.37) rotate(90)" gradientUnits="userSpaceOnUse"><stop offset="0" stop-color="#666dff"/><stop offset="1" stop-color="#bc02e1"/></linearGradient><linearGradient id="Degradado_sin_nombre_75-2" x1="-3810.59" y1="-3048.36" x2="-3742.63" y2="-3048.36" xlink:href="#Degradado_sin_nombre_75"/><linearGradient id="Degradado_sin_nombre_75-3" x1="-3793.76" y1="-3086.33" x2="-3743.25" y2="-3167.25" xlink:href="#Degradado_sin_nombre_75"/><linearGradient id="Degradado_sin_nombre_75-4" x1="-3808.21" y1="-3095.35" x2="-3757.69" y2="-3176.27" xlink:href="#Degradado_sin_nombre_75"/><linearGradient id="Degradado_sin_nombre_38-2" x1="-3658.12" y1="-3092.72" x2="-3564.32" y2="-3013.86" gradientTransform="translate(-2475.75 3921.37) rotate(90)" xlink:href="#Degradado_sin_nombre_38"/><linearGradient id="Degradado_sin_nombre_38-3" x1="-3593.69" y1="-2868.99" x2="-3617.05" y2="-3066.92" gradientTransform="translate(-2475.75 3921.37) rotate(90)" xlink:href="#Degradado_sin_nombre_38"/><linearGradient id="Degradado_sin_nombre_38-4" x1="-3595.07" y1="-2831.5" x2="-3618.44" y2="-3029.43" gradientTransform="translate(-2475.75 3921.37) rotate(90)" xlink:href="#Degradado_sin_nombre_38"/><linearGradient id="Degradado_sin_nombre_111-2" x1="-3461.32" y1="-3087.54" x2="-3390.7" y2="-3003.52" gradientTransform="translate(-2475.75 3921.37) rotate(90)" xlink:href="#Degradado_sin_nombre_111"/><linearGradient id="Degradado_sin_nombre_111-3" x1="-3454.87" y1="-3073" x2="-3397.66" y2="-3161.14" gradientTransform="translate(-2475.75 3921.37) rotate(90)" xlink:href="#Degradado_sin_nombre_111"/><linearGradient id="Degradado_sin_nombre_111-4" x1="-3469.56" y1="-3082.54" x2="-3412.34" y2="-3170.67" gradientTransform="translate(-2475.75 3921.37) rotate(90)" xlink:href="#Degradado_sin_nombre_111"/><linearGradient id="Degradado_sin_nombre_15-2" x1="-3289.16" y1="-3080.77" x2="-3219.58" y2="-3021.5" gradientTransform="translate(-2475.75 3921.37) rotate(90)" xlink:href="#Degradado_sin_nombre_15"/><linearGradient id="Degradado_sin_nombre_15-3" x1="-3244.28" y1="-2877.24" x2="-3254.07" y2="-3007.13" gradientTransform="translate(-2475.75 3921.37) rotate(90)" xlink:href="#Degradado_sin_nombre_15"/><linearGradient id="Degradado_sin_nombre_15-4" x1="-3247.97" y1="-2876.96" x2="-3257.76" y2="-3006.85" gradientTransform="translate(-2475.75 3921.37) rotate(90)" xlink:href="#Degradado_sin_nombre_15"/><linearGradient id="Degradado_sin_nombre_118-2" x1="-2754.39" y1="-3078.59" x2="-2699.76" y2="-3018.8" xlink:href="#Degradado_sin_nombre_118"/><linearGradient id="Degradado_sin_nombre_118-3" x1="-2720.58" y1="-2994.32" x2="-2748.93" y2="-3126.27" gradientTransform="translate(-2384.36 3921.37) rotate(90)" xlink:href="#Degradado_sin_nombre_118"/><linearGradient id="Degradado_sin_nombre_118-4" x1="-2713.98" y1="-2995.74" x2="-2742.33" y2="-3127.69" gradientTransform="translate(-2384.36 3921.37) rotate(90)" xlink:href="#Degradado_sin_nombre_118"/><linearGradient id="linear-gradient" x1="-3121.86" y1="-3093.75" x2="-3003.66" y2="-2967.99" gradientTransform="translate(3650.1 3890.47)" gradientUnits="userSpaceOnUse"><stop offset="0" stop-color="#21367f"/><stop offset="0.28" stop-color="#194e91"/><stop offset="0.88" stop-color="#068bc0"/><stop offset="1" stop-color="#0298ca"/></linearGradient><linearGradient id="linear-gradient-2" x1="-2957.96" y1="-3128.85" x2="-2841.13" y2="-2953.6" gradientTransform="translate(3475.45 4065.13)" gradientUnits="userSpaceOnUse"><stop offset="0" stop-color="#85c48d"/><stop offset="0.31" stop-color="#6dc09c"/><stop offset="0.95" stop-color="#30b7c4"/><stop offset="1" stop-color="#2bb6c7"/></linearGradient><linearGradient id="linear-gradient-3" x1="-3112.01" y1="-3087.54" x2="-3041.39" y2="-3003.52" gradientTransform="translate(-2475.75 3921.37) rotate(90)" xlink:href="#linear-gradient"/><linearGradient id="linear-gradient-4" x1="-3105.56" y1="-3073" x2="-3048.35" y2="-3161.14" gradientTransform="translate(-2475.75 3921.37) rotate(90)" xlink:href="#linear-gradient"/><linearGradient id="linear-gradient-5" x1="-3120.24" y1="-3082.54" x2="-3063.03" y2="-3170.67" gradientTransform="translate(-2475.75 3921.37) rotate(90)" xlink:href="#linear-gradient"/><linearGradient id="linear-gradient-6" x1="-2939.85" y1="-3080.77" x2="-2870.27" y2="-3021.5" gradientTransform="translate(-2475.75 3921.37) rotate(90)" xlink:href="#linear-gradient-2"/><linearGradient id="linear-gradient-7" x1="-2894.97" y1="-2877.24" x2="-2904.76" y2="-3007.13" gradientTransform="translate(-2475.75 3921.37) rotate(90)" xlink:href="#linear-gradient-2"/><linearGradient id="linear-gradient-8" x1="-2898.66" y1="-2876.96" x2="-2908.45" y2="-3006.85" gradientTransform="translate(-2475.75 3921.37) rotate(90)" xlink:href="#linear-gradient-2"/></defs><g id="DESIGNED_BY_FREEPIK" data-name="DESIGNED BY FREEPIK"><text class="cls-1" transform="translate(641.02 313.03)">16 Mai 2<tspan class="cls-2" x="79.46" y="0">0</tspan><tspan x="92.68" y="0">23</tspan></text><text class="cls-3" transform="translate(664.34 331.72)">09h - 12h</text><text class="cls-1" transform="translate(641.03 667.27)">17 Mai 2<tspan class="cls-2" x="79.13" y="0">0</tspan><tspan class="cls-4" x="92.34" y="0">23</tspan></text><text class="cls-3" transform="translate(664.18 685.97)">09h - 12h</text><text class="cls-1" transform="translate(641.03 1016.58)">18 Mai 2<tspan class="cls-2" x="79.91" y="0">0</tspan><tspan class="cls-4" x="93.13" y="0">23</tspan></text><text class="cls-3" transform="translate(664.57 1035.27)">09h - 12h</text><text class="cls-1" transform="translate(390 141.77)">16 Mai 2<tspan class="cls-2" x="79.46" y="0">0</tspan><tspan x="92.68" y="0">23</tspan></text><text class="cls-3" transform="translate(410.57 160.47)">08h - 09h</text><text class="cls-1" transform="translate(389.55 1191.62)">18 Mai 2<tspan class="cls-2" x="79.91" y="0">0</tspan><tspan class="cls-4" x="93.13" y="0">23</tspan></text><text class="cls-3" transform="translate(415.1 1210.31)">15h - 18h</text><text class="cls-1" transform="translate(390 489.99)">16 Mai 2<tspan class="cls-2" x="79.46" y="0">0</tspan><tspan x="92.68" y="0">23</tspan></text><text class="cls-3" transform="translate(415.32 508.7)">15h - 18h</text><text class="cls-1" transform="translate(390.33 839.31)">17 Mai 2<tspan class="cls-2" x="79.13" y="0">0</tspan><tspan class="cls-4" x="92.34" y="0">23</tspan></text><text class="cls-3" transform="translate(415.49 858)">15h - 18h</text><polygon class="cls-5" points="545.16 231.83 545.16 56.91 571.14 70.62 598.31 56.91 598.31 231.83 545.16 231.83"/><rect class="cls-6" x="484.27" y="292.45" width="174.92" height="53.15" transform="translate(890.76 -252.71) rotate(90)"/><rect class="cls-7" x="484.27" y="467.11" width="174.92" height="53.15" transform="translate(1065.41 -78.05) rotate(90)"/><rect class="cls-8" x="484.27" y="641.76" width="174.92" height="53.15" transform="translate(1240.07 96.61) rotate(90)"/><polygon class="cls-9" points="545.16 1280.03 545.16 1105.11 598.31 1105.11 598.31 1280.03 570.32 1295.7 545.16 1280.03"/><circle class="cls-10" cx="572.61" cy="144.76" r="33.98"/><path class="cls-11" d="M606.59,144.76a34,34,0,1,1-34-34,34,34,0,0,1,34,34Zm6.18,0a40.17,40.17,0,1,0-40.16,40.16,40.21,40.21,0,0,0,40.16-40.16Z"/><circle class="cls-11" cx="572.61" cy="144.76" r="20.39"/><text class="cls-12" transform="translate(567.04 151.7)">1</text><rect class="cls-13" x="605.9" y="142.69" width="64.31" height="4.12"/><circle class="cls-14" cx="670.21" cy="144.76" r="8.32"/><circle class="cls-15" cx="572.61" cy="316.01" r="33.98"/><path class="cls-11" d="M606.59,316a34,34,0,1,1-34-34,34,34,0,0,1,34,34Zm6.18,0a40.17,40.17,0,1,0-40.16,40.17A40.21,40.21,0,0,0,612.77,316Z"/><circle class="cls-11" cx="572.61" cy="316.01" r="20.39"/><text class="cls-12" transform="translate(564.71 322.96)">2</text><rect class="cls-16" x="442.85" y="313.95" width="98.42" height="4.12"/><circle class="cls-17" cx="442.85" cy="316.01" r="8.32"/><circle class="cls-18" cx="572.61" cy="492.98" r="33.98"/><path class="cls-11" d="M606.59,493a34,34,0,1,1-34-34,34,34,0,0,1,34,34Zm6.18,0a40.17,40.17,0,1,0-40.16,40.17A40.2,40.2,0,0,0,612.77,493Z"/><circle class="cls-11" cx="572.61" cy="492.98" r="20.39"/><text class="cls-12" transform="translate(564.95 499.93)">3</text><rect class="cls-19" x="605.9" y="490.92" width="64.31" height="4.12"/><circle class="cls-20" cx="670.21" cy="492.98" r="8.32"/><circle class="cls-21" cx="572.61" cy="670.26" r="33.98"/><path class="cls-11" d="M606.59,670.26a34,34,0,1,1-34-34,34,34,0,0,1,34,34Zm6.18,0a40.17,40.17,0,1,0-40.16,40.16,40.21,40.21,0,0,0,40.16-40.16Z"/><circle class="cls-11" cx="572.61" cy="670.26" r="20.39"/><text class="cls-12" transform="translate(563.55 677.2)">4</text><rect class="cls-22" x="442.85" y="668.2" width="98.42" height="4.12"/><path class="cls-23" d="M442.85,678.58a8.33,8.33,0,1,1,8.32-8.32A8.33,8.33,0,0,1,442.85,678.58Z"/><circle class="cls-24" cx="572.61" cy="1194.6" r="33.98"/><path class="cls-11" d="M606.59,1194.6a34,34,0,1,1-34-34,34,34,0,0,1,34,34Zm6.18,0a40.17,40.17,0,1,0-40.16,40.17,40.21,40.21,0,0,0,40.16-40.17Z"/><circle class="cls-11" cx="572.61" cy="1194.6" r="20.39"/><text class="cls-12" transform="translate(563.89 1201.55)">7</text><rect class="cls-25" x="606.59" y="1192.54" width="64.31" height="4.12"/><circle class="cls-26" cx="670.9" cy="1194.6" r="8.32"/><rect class="cls-27" x="484.27" y="816.42" width="174.92" height="53.15" transform="translate(1414.73 271.26) rotate(90)"/><rect class="cls-28" x="484.27" y="991.08" width="174.92" height="53.15" transform="translate(1589.38 445.92) rotate(90)"/><circle class="cls-29" cx="572.61" cy="842.29" r="33.98"/><path class="cls-11" d="M606.59,842.29a34,34,0,1,1-34-34,34,34,0,0,1,34,34Zm6.18,0a40.17,40.17,0,1,0-40.16,40.17,40.21,40.21,0,0,0,40.16-40.17Z"/><circle class="cls-11" cx="572.61" cy="842.29" r="20.39"/><text class="cls-12" transform="translate(564.91 849.24)">5</text><rect class="cls-30" x="605.9" y="840.23" width="64.31" height="4.12"/><circle class="cls-31" cx="670.21" cy="842.29" r="8.32"/><circle class="cls-32" cx="572.61" cy="1019.57" r="33.98"/><path class="cls-11" d="M606.59,1019.57a34,34,0,1,1-34-34,34,34,0,0,1,34,34Zm6.18,0a40.17,40.17,0,1,0-40.16,40.17,40.21,40.21,0,0,0,40.16-40.17Z"/><circle class="cls-11" cx="572.61" cy="1019.57" r="20.39"/><text class="cls-12" transform="translate(564.16 1026.51)">6</text><rect class="cls-33" x="442.85" y="1017.51" width="98.42" height="4.12"/><path class="cls-34" d="M442.85,1027.89a8.32,8.32,0,1,1,8.32-8.32A8.32,8.32,0,0,1,442.85,1027.89Z"/><text class="cls-35" transform="translate(702.45 140.29)"><tspan class="cls-36">A<tspan class="cls-37" x="12.32" y="0">cc</tspan><tspan class="cls-38" x="31.28" y="0">euil</tspan></tspan><tspan x="0" y="19.86">des </tspan><tspan class="cls-39" x="34.76" y="19.86">p</tspan><tspan class="cls-40" x="46" y="19.86">a</tspan><tspan class="cls-41" x="56.05" y="19.86">r</tspan><tspan class="cls-38" x="63.25" y="19.86">ti</tspan><tspan class="cls-42" x="75.05" y="19.86">c</tspan><tspan class="cls-40" x="84.58" y="19.86">i</tspan><tspan class="cls-39" x="89.37" y="19.86">p</tspan><tspan class="cls-40" x="100.6" y="19.86">ants</tspan></text><text class="cls-35" transform="translate(309.45 310.63)">S<tspan class="cls-43" x="10.41" y="0">é</tspan><tspan x="20.46" y="0">a</tspan><tspan class="cls-44" x="30.51" y="0">n</tspan><tspan class="cls-37" x="41.86" y="0">c</tspan><tspan x="51.34" y="0">e</tspan><tspan x="0" y="19.86">d&apos;ou</tspan><tspan class="cls-45" x="36.96" y="19.86">v</tspan><tspan x="46.28" y="19.86">e</tspan><tspan class="cls-41" x="56.58" y="19.86">r</tspan><tspan class="cls-38" x="63.78" y="19.86">tu</tspan><tspan class="cls-46" x="82.07" y="19.86">r</tspan><tspan x="88.85" y="19.86">e</tspan></text><text class="cls-35" transform="translate(702.37 478.01)"><tspan class="cls-47">W</tspan><tspan x="18.03" y="0">o</tspan><tspan class="cls-36" x="28.7" y="0">r</tspan><tspan class="cls-48" x="35.57" y="0">k</tspan><tspan x="45.82" y="0">s</tspan><tspan class="cls-44" x="54.34" y="0">h</tspan><tspan class="cls-40" x="65.7" y="0">op 1 :</tspan><tspan x="0" y="19.86">Quelles </tspan><tspan class="cls-49" x="68.46" y="19.86">C</tspan><tspan x="80.16" y="19.86">ompé</tspan><tspan class="cls-50" x="129.92" y="19.86">t</tspan><tspan x="136.64" y="19.86">e</tspan><tspan class="cls-44" x="146.93" y="19.86">n</tspan><tspan class="cls-37" x="158.29" y="19.86">c</tspan><tspan class="cls-38" x="167.77" y="19.86">es In</tspan><tspan class="cls-51" x="207.78" y="19.86">f</tspan><tspan x="213.75" y="19.86">o</tspan><tspan class="cls-42" x="224.43" y="19.86">r</tspan><tspan x="231.3" y="19.86">matiques</tspan><tspan x="0" y="39.73" xml:space="preserve">pour les  Métiers du Nu</tspan><tspan class="cls-52" x="197.7" y="39.73">m</tspan><tspan x="215.14" y="39.73">é</tspan><tspan class="cls-42" x="225.44" y="39.73">r</tspan><tspan x="232.31" y="39.73">iqu</tspan><tspan class="cls-53" x="259.72" y="39.73">e</tspan><tspan class="cls-38" x="269.27" y="39.73">?</tspan></text><text class="cls-35" transform="translate(121.19 648.16)"><tspan class="cls-47">W</tspan><tspan x="18.03" y="0">o</tspan><tspan class="cls-36" x="28.7" y="0">r</tspan><tspan class="cls-48" x="35.57" y="0">k</tspan><tspan x="45.82" y="0">s</tspan><tspan class="cls-44" x="54.34" y="0">h</tspan><tspan class="cls-40" x="65.7" y="0">op 2 :</tspan><tspan class="cls-54" x="0" y="19.86">P</tspan><tspan x="11.82" y="19.86">our u</tspan><tspan class="cls-44" x="56.56" y="19.86">n</tspan><tspan x="67.91" y="19.86">e </tspan><tspan class="cls-37" x="82.78" y="19.86">f</tspan><tspan class="cls-40" x="88.75" y="19.86">o</tspan><tspan class="cls-42" x="99.43" y="19.86">r</tspan><tspan x="106.3" y="19.86">mation s</tspan><tspan class="cls-42" x="180.68" y="19.86">c</tspan><tspan x="190.22" y="19.86">ientifique</tspan><tspan x="0" y="39.73">plu</tspan><tspan class="cls-42" x="27.41" y="39.73">r</tspan><tspan x="34.28" y="39.73">ielle au se</tspan><tspan class="cls-41" x="118.5" y="39.73">r</tspan><tspan x="125.7" y="39.73">vi</tspan><tspan class="cls-37" x="140.05" y="39.73">c</tspan><tspan class="cls-38" x="149.53" y="39.73">e de l&apos;Ent</tspan><tspan class="cls-46" x="228.5" y="39.73">r</tspan><tspan x="235.29" y="39.73">ep</tspan><tspan class="cls-42" x="256.94" y="39.73">r</tspan><tspan x="263.81" y="39.73">ise</tspan><tspan x="0" y="59.59">per</tspan><tspan class="cls-37" x="28.6" y="59.59">f</tspan><tspan x="34.58" y="59.59">o</tspan><tspan class="cls-36" x="45.25" y="59.59">r</tspan><tspan class="cls-38" x="52.12" y="59.59">man</tspan><tspan class="cls-50" x="90.94" y="59.59">t</tspan><tspan class="cls-38" x="97.66" y="59.59">e</tspan></text><text class="cls-35" transform="translate(702.37 827.32)"><tspan class="cls-47">W</tspan><tspan x="18.03" y="0">o</tspan><tspan class="cls-36" x="28.7" y="0">r</tspan><tspan class="cls-48" x="35.57" y="0">k</tspan><tspan x="45.82" y="0">s</tspan><tspan class="cls-44" x="54.34" y="0">h</tspan><tspan class="cls-40" x="65.7" y="0">op 3 :</tspan><tspan class="cls-42" x="0" y="19.86">L</tspan><tspan x="9.83" y="19.86">es Data s</tspan><tspan class="cls-42" x="87.1" y="19.86">c</tspan><tspan x="96.63" y="19.86">ie</tspan><tspan class="cls-55" x="111.71" y="19.86">n</tspan><tspan class="cls-37" x="123.07" y="19.86">c</tspan><tspan class="cls-38" x="132.55" y="19.86">es au se</tspan><tspan class="cls-41" x="200.64" y="19.86">r</tspan><tspan x="207.84" y="19.86">vi</tspan><tspan class="cls-37" x="222.2" y="19.86">c</tspan><tspan x="231.68" y="19.86">e de</tspan><tspan x="0" y="39.73">l&apos;</tspan><tspan class="cls-44" x="8.42" y="39.73">a</tspan><tspan class="cls-56" x="18.49" y="39.73">c</tspan><tspan class="cls-38" x="28.22" y="39.73">tua</tspan><tspan class="cls-36" x="56.56" y="39.73">r</tspan><tspan x="63.43" y="39.73">iat et de la fina</tspan><tspan class="cls-55" x="189.7" y="39.73">n</tspan><tspan class="cls-37" x="201.06" y="39.73">c</tspan><tspan class="cls-38" x="210.54" y="39.73">e</tspan></text><text class="cls-35" transform="translate(65.61 946.76)"><tspan class="cls-47">W</tspan><tspan x="18.03" y="0">o</tspan><tspan class="cls-36" x="28.7" y="0">r</tspan><tspan class="cls-48" x="35.57" y="0">k</tspan><tspan x="45.82" y="0">s</tspan><tspan class="cls-44" x="54.34" y="0">h</tspan><tspan class="cls-40" x="65.7" y="0">op 4 :</tspan><tspan class="cls-42" x="0" y="19.86">L</tspan><tspan x="9.83" y="19.86">es initiati</tspan><tspan class="cls-45" x="87.78" y="19.86">v</tspan><tspan x="97.09" y="19.86">es de la filiè</tspan><tspan class="cls-46" x="196.94" y="19.86">r</tspan><tspan x="203.72" y="19.86">e d&apos;i</tspan><tspan class="cls-44" x="238.38" y="19.86">n</tspan><tspan x="249.74" y="19.86">génieurs</tspan><tspan x="0" y="39.73">&quot;I</tspan><tspan class="cls-44" x="12.12" y="39.73">n</tspan><tspan x="23.47" y="39.73">dust</tspan><tspan class="cls-36" x="61.66" y="39.73">r</tspan><tspan x="68.53" y="39.73">ie et sécu</tspan><tspan class="cls-42" x="149.76" y="39.73">r</tspan><tspan x="156.63" y="39.73">i</tspan><tspan class="cls-50" x="161.42" y="39.73">t</tspan><tspan class="cls-38" x="168.14" y="39.73">é des ali</tspan><tspan class="cls-44" x="237.37" y="39.73">m</tspan><tspan class="cls-38" x="254.82" y="39.73">ents&quot; (ISA)</tspan><tspan x="0" y="59.59">pour u</tspan><tspan class="cls-55" x="56.09" y="59.59">n</tspan><tspan class="cls-38" x="67.45" y="59.59">e </tspan><tspan class="cls-44" x="82.31" y="59.59">m</tspan><tspan class="cls-38" x="99.76" y="59.59">eilleu</tspan><tspan class="cls-46" x="145.97" y="59.59">r</tspan><tspan x="152.76" y="59.59">e i</tspan><tspan class="cls-44" x="172.41" y="59.59">n</tspan><tspan class="cls-42" x="183.76" y="59.59">c</tspan><tspan x="193.29" y="59.59">lusion</tspan><tspan x="0" y="79.45">so</tspan><tspan class="cls-42" x="19.2" y="79.45">c</tspan><tspan x="28.73" y="79.45">i</tspan><tspan class="cls-57" x="33.52" y="79.45">o-</tspan><tspan x="50.9" y="79.45">é</tspan><tspan class="cls-37" x="61.19" y="79.45">c</tspan><tspan x="70.68" y="79.45">o</tspan><tspan class="cls-44" x="81.35" y="79.45">n</tspan><tspan x="92.71" y="79.45">omique des lau</tspan><tspan class="cls-58" x="223.95" y="79.45">r</tspan><tspan class="cls-45" x="230.74" y="79.45">é</tspan><tspan x="240.78" y="79.45">ats</tspan></text><text class="cls-35" transform="translate(65.61 1062.44)"><tspan class="cls-47">W</tspan><tspan x="18.03" y="0">o</tspan><tspan class="cls-36" x="28.7" y="0">r</tspan><tspan class="cls-48" x="35.57" y="0">k</tspan><tspan x="45.82" y="0">s</tspan><tspan class="cls-44" x="54.34" y="0">h</tspan><tspan class="cls-40" x="65.7" y="0">op 5 :</tspan><tspan class="cls-44" x="0" y="19.86">L</tspan><tspan x="9.93" y="19.86">a </tspan><tspan class="cls-42" x="24.55" y="19.86">c</tspan><tspan x="34.08" y="19.86">himie é</tspan><tspan class="cls-37" x="97.57" y="19.86">c</tspan><tspan x="107.06" y="19.86">ologique au se</tspan><tspan class="cls-41" x="231.66" y="19.86">r</tspan><tspan x="238.86" y="19.86">vi</tspan><tspan class="cls-37" x="253.21" y="19.86">c</tspan><tspan x="262.7" y="19.86">e</tspan><tspan x="0" y="39.73">des Ent</tspan><tspan class="cls-46" x="64.21" y="39.73">r</tspan><tspan x="70.99" y="39.73">ep</tspan><tspan class="cls-42" x="92.64" y="39.73">r</tspan><tspan x="99.51" y="39.73">ises</tspan></text><text class="cls-35" transform="translate(702.37 1189.56)"><tspan class="cls-47">W</tspan><tspan x="18.03" y="0">o</tspan><tspan class="cls-36" x="28.7" y="0">r</tspan><tspan class="cls-48" x="35.57" y="0">k</tspan><tspan x="45.82" y="0">s</tspan><tspan class="cls-44" x="54.34" y="0">h</tspan><tspan class="cls-40" x="65.7" y="0">op 6 :</tspan><tspan x="0" y="19.86">Génie </tspan><tspan class="cls-42" x="54.06" y="19.86">c</tspan><tspan x="63.59" y="19.86" xml:space="preserve">ivil :  in</tspan><tspan class="cls-44" x="121.38" y="19.86">n</tspan><tspan class="cls-43" x="132.73" y="19.86">o</tspan><tspan class="cls-59" x="143.16" y="19.86">v</tspan><tspan x="152.44" y="19.86">ation</tspan><tspan x="0" y="39.73">et e</tspan><tspan class="cls-58" x="32.18" y="39.73">n</tspan><tspan x="43.35" y="39.73">vi</tspan><tspan class="cls-58" x="57.7" y="39.73">r</tspan><tspan x="64.49" y="39.73">on</tspan><tspan class="cls-55" x="86.5" y="39.73">n</tspan><tspan class="cls-38" x="97.86" y="39.73">e</tspan><tspan class="cls-44" x="108.15" y="39.73">m</tspan><tspan class="cls-38" x="125.6" y="39.73">ent</tspan></text><path class="cls-60" d="M1033.15,1325.15H46.85a14.7,14.7,0,0,1-14.7-14.7V42.16a14.7,14.7,0,0,1,14.7-14.7h986.3a14.7,14.7,0,0,1,14.7,14.7V1310.45a14.7,14.7,0,0,1-14.7,14.7Z"/></g></svg>